<svg xmlns="http://www.w3.org/2000/svg" viewBox="0 0 500 500"><g id="freepik--background-complete--inject-134"><rect x="171.37" y="319.08" width="1" height="134.37" style="fill:#e0e0e0"></rect><rect x="170.44" y="303.3" width="2.66" height="17.69" style="fill:#e0e0e0"></rect><polygon points="181.17 399.75 161.25 399.75 178.37 373.54 163.33 373.54 176.83 348.55 165.45 348.55 165.45 347.55 178.51 347.55 165 372.54 180.22 372.54 163.1 398.75 181.17 398.75 181.17 399.75" style="fill:#e0e0e0"></polygon><polygon points="157.26 469.69 156.27 469.62 166.92 320.5 176.81 320.5 186.27 469.62 185.27 469.69 175.87 321.5 167.85 321.5 157.26 469.69" style="fill:#e0e0e0"></polygon><polygon points="184.78 453.95 157.45 453.95 181.22 425.34 159.43 425.34 180.78 398.93 181.55 399.56 161.52 424.34 183.35 424.34 159.58 452.95 184.78 452.95 184.78 453.95" style="fill:#e0e0e0"></polygon><rect x="392" y="243.12" width="1" height="202.16" style="fill:#e0e0e0"></rect><rect x="390.35" y="219.39" width="3.99" height="26.62" style="fill:#e0e0e0"></rect><polygon points="406.48 364.23 376.99 364.23 402.74 324.81 380.06 324.81 400.38 287.21 382.83 287.21 382.83 286.21 402.06 286.21 381.74 323.81 404.59 323.81 378.83 363.23 406.48 363.23 406.48 364.23" style="fill:#e0e0e0"></polygon><polygon points="412.87 469.08 398.75 246.5 386.21 246.5 370.37 468.19 369.38 468.12 385.27 245.5 399.69 245.5 399.72 245.97 413.87 469.02 412.87 469.08" style="fill:#e0e0e0"></polygon><polygon points="411.92 445.78 371.33 445.78 407.1 402.74 374.3 402.74 406.09 363.41 406.87 364.04 376.39 401.74 409.23 401.74 373.46 444.78 411.92 444.78 411.92 445.78" style="fill:#e0e0e0"></polygon><path d="M250,303c.49-3.53-4.6-6.44-8.43-6.74-1.83-.14-3.72.13-5.45-.46-3.75-1.28-5.25-6-8.91-7.52-2.73-1.13-5.88-.13-8.53,1.18s-5.27,2.95-8.23,3.13c-2.58.16-5.37-.77-7.63.46-1.68.92-2.55,2.81-4.1,3.92a9.92,9.92,0,0,1-5.37,1.43,15.58,15.58,0,0,0-5.54.88c-1.71.77-3.12,2.54-2.77,4.34Z" style="fill:#ebebeb"></path><path d="M80.18,100.15a70.3,70.3,0,1,0,78.28-61.28A70.29,70.29,0,0,0,80.18,100.15Z" style="fill:#f5f5f5"></path><path d="M134.07,130.7a15.3,15.3,0,1,0,17-13.34A15.3,15.3,0,0,0,134.07,130.7Z" style="fill:#e0e0e0"></path><path d="M132.4,130.65c-1,8.37,4.42,15.91,12.79,16.93s15.52-5.57,16.54-13.93a14.29,14.29,0,0,0-12.86-16.3C140.5,116.33,133.42,122.29,132.4,130.65Z" style="fill:#ebebeb"></path><path d="M135.82,39.79a70.37,70.37,0,0,0-37,41.63s2.82,2.92,2.32,6.49c-.42,2.94-3.71,3.79-4.87,4-.17,1-.35,2-.48,3.06a70.23,70.23,0,0,0-.14,15.53c.2.15,6,4.49,6.32,8.53.25,3-1.19,6-2.59,8.1.43,1.19.87,2.38,1.36,3.54a70.57,70.57,0,0,0,17.51,24.74c.69-.3,4.85-2,8.58-.07,4.07,2.07,2.72,8,2.72,8l-.5.15a70.17,70.17,0,0,0,50.66,8.82A70.29,70.29,0,1,1,135.82,39.79Z" style="fill:#e0e0e0"></path><path d="M98.27,95.51A1.69,1.69,0,1,0,100.15,94,1.69,1.69,0,0,0,98.27,95.51Z" style="fill:#e0e0e0"></path><path d="M175.68,140a23.68,23.68,0,0,1,4.29-8.75c1.23-1.72,3-3.55,5.05-3.27l1.79.29a6.82,6.82,0,0,1,7.41,1.79,8.4,8.4,0,0,1,1.63,7.08,16,16,0,0,1-3.35,6.67,30.37,30.37,0,0,1-6.05,5.88,7.86,7.86,0,0,1-4.28,1.83,5.93,5.93,0,0,1-4.51-2.25A10.94,10.94,0,0,1,175.68,140Z" style="fill:#e0e0e0"></path><path d="M174,139.77a23.65,23.65,0,0,1,4.29-8.76,7.88,7.88,0,0,1,5.05-3.26l2.76-.46c2.74.1,4.65.51,6.44,2.54a8.39,8.39,0,0,1,1.63,7.08,16.07,16.07,0,0,1-3.35,6.67,30.59,30.59,0,0,1-6.05,5.87,6.72,6.72,0,0,1-4,1.56c-1.74.05-2.9-1.12-4-2.44C174.61,146.09,173.35,143,174,139.77Z" style="fill:#ebebeb"></path><path d="M154.38,164.82a21.14,21.14,0,0,1-7.52-.94c-1.55-.43-3.29-1.15-3.5-2.54l-.13-1.19a3.94,3.94,0,0,1-.1-5.06,7.36,7.36,0,0,1,5.07-2.47,14.22,14.22,0,0,1,5.74.76,24.18,24.18,0,0,1,5.68,2.64,5.12,5.12,0,0,1,2.25,2.34,3.6,3.6,0,0,1-.82,3.32A9.68,9.68,0,0,1,154.38,164.82Z" style="fill:#e0e0e0"></path><path d="M152.9,165.17a21.14,21.14,0,0,1-7.52-.93,5.55,5.55,0,0,1-3.49-2.54L141,160c-.48-1.76-.55-3,.65-4.59a7.39,7.39,0,0,1,5.07-2.48,14.4,14.4,0,0,1,5.74.77,23.24,23.24,0,0,1,5.68,2.64,4.33,4.33,0,0,1,2,2.23c.38,1.09-.28,2.06-1.06,3A8.88,8.88,0,0,1,152.9,165.17Z" style="fill:#ebebeb"></path><path d="M117.32,64.88a23.77,23.77,0,0,1,8-5.57c1.91-.9,4.31-1.66,6-.4L132.75,60a6.79,6.79,0,0,1,5.6,5.16,8.37,8.37,0,0,1-2,7,16,16,0,0,1-6.16,4.2,30.18,30.18,0,0,1-8.15,2.2,7.88,7.88,0,0,1-4.62-.48A5.93,5.93,0,0,1,114.54,74,11,11,0,0,1,117.32,64.88Z" style="fill:#e0e0e0"></path><path d="M114.69,65.63a23.63,23.63,0,0,1,8-5.57,7.89,7.89,0,0,1,6-.4l2.63.94c2.35,1.42,3.82,2.7,4.39,5.35a8.33,8.33,0,0,1-2,7,16.12,16.12,0,0,1-6.16,4.2,31.13,31.13,0,0,1-8.15,2.2,6.82,6.82,0,0,1-4.27-.6c-1.54-.8-2-2.38-2.34-4.09A10.39,10.39,0,0,1,114.69,65.63Z" style="fill:#ebebeb"></path><path d="M184,115.89a3.48,3.48,0,0,1,1.32-1.9,4.61,4.61,0,0,1,3.18-.38,3.39,3.39,0,0,1,2.23,1.77,4.81,4.81,0,0,1,.78,3.66,3.92,3.92,0,0,1-2.34,2.85,4,4,0,0,1-4.43-1.31A5.1,5.1,0,0,1,184,115.89Z" style="fill:#e0e0e0"></path><path d="M183.24,115.92a3.21,3.21,0,0,1,1.22-1.75,4.35,4.35,0,0,1,2.92-.35,3.14,3.14,0,0,1,2.05,1.63,4.46,4.46,0,0,1,.72,3.36,3.62,3.62,0,0,1-2.15,2.63,3.7,3.7,0,0,1-4.08-1.21A4.67,4.67,0,0,1,183.24,115.92Z" style="fill:#ebebeb"></path><path d="M190.42,73.7a2.82,2.82,0,0,1,1.06-1.53,3.74,3.74,0,0,1,2.56-.3,2.71,2.71,0,0,1,1.79,1.42,3.89,3.89,0,0,1,.63,2.94,3.15,3.15,0,0,1-1.88,2.29,3.24,3.24,0,0,1-3.57-1A4.09,4.09,0,0,1,190.42,73.7Z" style="fill:#e0e0e0"></path><path d="M189.84,73.72a2.6,2.6,0,0,1,1-1.4,3.44,3.44,0,0,1,2.35-.28,2.53,2.53,0,0,1,1.65,1.31,3.59,3.59,0,0,1,.58,2.7,2.93,2.93,0,0,1-1.73,2.11,3,3,0,0,1-3.28-1A3.77,3.77,0,0,1,189.84,73.72Z" style="fill:#ebebeb"></path><path d="M153,52.51a3.68,3.68,0,0,1,1.4-2,4.92,4.92,0,0,1,3.35-.4A3.61,3.61,0,0,1,160.11,52a5.11,5.11,0,0,1,.83,3.86,4.16,4.16,0,0,1-2.47,3,4.23,4.23,0,0,1-4.67-1.38A5.37,5.37,0,0,1,153,52.51Z" style="fill:#e0e0e0"></path><path d="M152.27,52.54a3.39,3.39,0,0,1,1.28-1.84,4.56,4.56,0,0,1,3.08-.36,3.3,3.3,0,0,1,2.16,1.71,4.72,4.72,0,0,1,.76,3.55,3.83,3.83,0,0,1-2.27,2.76,3.91,3.91,0,0,1-4.3-1.27A5,5,0,0,1,152.27,52.54Z" style="fill:#ebebeb"></path><path d="M166.78,55a1.88,1.88,0,0,1,.7-1,2.5,2.5,0,0,1,1.67-.2,1.8,1.8,0,0,1,1.18.94,2.52,2.52,0,0,1,.41,1.92,2.06,2.06,0,0,1-1.23,1.5,2.11,2.11,0,0,1-2.34-.69A2.68,2.68,0,0,1,166.78,55Z" style="fill:#e0e0e0"></path><path d="M166.4,55a1.74,1.74,0,0,1,.65-.92,2.25,2.25,0,0,1,1.54-.18,1.63,1.63,0,0,1,1.07.85,2.35,2.35,0,0,1,.38,1.78,1.91,1.91,0,0,1-1.13,1.38,1.94,1.94,0,0,1-2.15-.64A2.48,2.48,0,0,1,166.4,55Z" style="fill:#ebebeb"></path><path d="M351.58,32.93l-16.66,8.36a3.38,3.38,0,0,0-2.05,3.1v7.8a36.14,36.14,0,0,0,5.94,20c3,4.57,7,10.42,13.6,13.76h3c7.37-2.25,12.88-8.24,16.24-13.37a36.14,36.14,0,0,0,5.94-20V44.39a3.38,3.38,0,0,0-2.05-3.1l-19-8.09A11.62,11.62,0,0,0,351.58,32.93Z" style="fill:#e0e0e0"></path><path d="M350.91,33.2l-19,8.09a3.38,3.38,0,0,0-2.05,3.1v7.8A36.49,36.49,0,0,0,352.41,85.9c7.37-2.25,12.88-8.24,16.24-13.37a36.14,36.14,0,0,0,5.94-20V44.39a3.38,3.38,0,0,0-2-3.1l-19-8.09A3.39,3.39,0,0,0,350.91,33.2Z" style="fill:#f5f5f5"></path><path d="M374.53,50.47a2,2,0,0,1,0,.36l0,1c0,.45.05,1,0,1.63s0,1.37-.1,2.17-.13,1.68-.3,2.61c-.07.47-.13.95-.23,1.45s-.21,1-.32,1.51a38,38,0,0,1-2.19,6.56,38.31,38.31,0,0,1-3.41,6c-.63.86-1.21,1.68-1.84,2.39-.31.36-.59.72-.89,1l-.86.92c-.54.6-1.09,1.07-1.55,1.51a16,16,0,0,1-1.24,1.08l-.8.65-.29.21s.08-.1.25-.26l.77-.69a15.63,15.63,0,0,0,1.19-1.11c.45-.45,1-.93,1.52-1.53l.84-.93c.3-.32.57-.68.87-1,.62-.72,1.19-1.54,1.81-2.39a40.53,40.53,0,0,0,3.36-6,39.49,39.49,0,0,0,2.19-6.5c.11-.51.23-1,.34-1.5s.16-1,.24-1.44c.17-.92.24-1.8.33-2.59s.09-1.52.14-2.15,0-1.18,0-1.63,0-.76,0-1A1.41,1.41,0,0,1,374.53,50.47Z" style="fill:#e0e0e0"></path><polygon points="350.82 67.41 339.94 58.75 342.96 54.95 350.26 60.76 360.92 48.83 364.54 52.06 350.82 67.41" style="fill:#fff"></polygon><path d="M463.06,69c.35-2.56-3.26-4.66-6-4.88a15.54,15.54,0,0,1-3.87-.34c-2.66-.92-3.72-4.36-6.31-5.45-1.94-.82-4.17-.09-6,.85s-3.74,2.14-5.84,2.28c-1.83.11-3.81-.57-5.41.33-1.19.66-1.82,2-2.92,2.84a6.92,6.92,0,0,1-3.8,1,10.57,10.57,0,0,0-3.93.64,3.11,3.11,0,0,0-2,3.15Z" style="fill:#ebebeb"></path><path d="M463.06,232.75c.35-2.51-3.26-4.57-6-4.78a15.54,15.54,0,0,1-3.87-.33c-2.66-.9-3.72-4.26-6.31-5.33-1.94-.8-4.17-.09-6,.83s-3.74,2.09-5.84,2.23c-1.83.11-3.81-.55-5.41.32-1.19.65-1.82,2-2.92,2.79a7.16,7.16,0,0,1-3.8,1,11,11,0,0,0-3.93.62,3,3,0,0,0-2,3.08Z" style="fill:#ebebeb"></path><path d="M65.38,214.63c.31-2.18-2.83-4-5.2-4.16a13.92,13.92,0,0,1-3.36-.28c-2.31-.79-3.24-3.71-5.49-4.64-1.69-.7-3.63-.08-5.27.73s-3.25,1.81-5.08,1.93c-1.59.1-3.31-.48-4.7.28-1,.57-1.58,1.74-2.54,2.42a6.06,6.06,0,0,1-3.31.88,9.59,9.59,0,0,0-3.42.55A2.64,2.64,0,0,0,25.3,215Z" style="fill:#ebebeb"></path><path d="M96,41.31c.3-2.18-2.84-4-5.2-4.16a14,14,0,0,1-3.37-.28c-2.31-.79-3.23-3.71-5.49-4.64-1.69-.7-3.63-.08-5.27.73s-3.25,1.81-5.08,1.93c-1.58.1-3.31-.48-4.7.28-1,.57-1.58,1.73-2.54,2.42a6.06,6.06,0,0,1-3.31.88,9.28,9.28,0,0,0-3.41.55,2.62,2.62,0,0,0-1.71,2.68Z" style="fill:#ebebeb"></path></g><g id="freepik--Floor--inject-134"><path d="M471.41,470c0,.15-99.14.26-221.4.26S28.59,470.17,28.59,470s99.12-.26,221.42-.26S471.41,469.88,471.41,470Z" style="fill:#263238"></path></g><g id="freepik--Rocket--inject-134"><path d="M306.85,450.33a23.3,23.3,0,0,0-20.07-4,14.75,14.75,0,0,0-18.22-15.86,21,21,0,1,0-41.29.14,13.06,13.06,0,0,0-13.82,18.84c-4-1.11-8.1.48-11.45,2.88-5.59,4-6.88,9.61-5.17,17.71l118.87-.26C315.81,462.69,312.43,454.67,306.85,450.33Z" style="fill:#e0e0e0"></path><path d="M400.2,450.33a23.28,23.28,0,0,0-20.06-4,14.76,14.76,0,0,0-18.23-15.86,21,21,0,1,0-41.28.14,13.06,13.06,0,0,0-13.82,18.84c-4-1.11-8.11.48-11.46,2.88-5.58,4-6.92,9.35-5.2,17.45l118.91.08C409.17,462.77,405.79,454.67,400.2,450.33Z" style="fill:#e0e0e0"></path><path d="M345.35,163.19a5.53,5.53,0,0,0-8.7-.26c-4,4.82-9.19,13.22-9.19,24.16V321.18h24.6s1.54-116.41,1.54-134.09A40.2,40.2,0,0,0,345.35,163.19Z" style="fill:#840000"></path><path d="M345.35,163.19s.7.85,1.85,2.6a40.87,40.87,0,0,1,4.12,8.17,38.32,38.32,0,0,1,2.4,14.29c-.05,5.68-.12,12.15-.19,19.33-.3,28.73-.73,68.68-1.22,113.6v.25H327.2v-.25c0-47.43.06-90.05.08-120.82,0-3.84,0-7.5,0-11,0-1.73,0-3.42.13-5.05a34.34,34.34,0,0,1,.7-4.69,39.38,39.38,0,0,1,6.45-14.18c.62-.88,1.25-1.67,1.85-2.41a5.64,5.64,0,0,1,2.08-1.67,5.56,5.56,0,0,1,4.11-.22,5.36,5.36,0,0,1,2.17,1.34,5.11,5.11,0,0,1,.56.67s-.19-.23-.6-.63a5.28,5.28,0,0,0-2.16-1.29,5.55,5.55,0,0,0-4,.26c-1.53.66-2.56,2.37-3.83,4.06a39.15,39.15,0,0,0-6.33,14.13,32.31,32.31,0,0,0-.68,4.65c-.14,1.62-.12,3.3-.11,5,0,3.46,0,7.12,0,11,0,30.77.05,73.39.08,120.82l-.25-.26h24.6l-.26.25c.55-44.91,1-84.86,1.39-113.59.1-7.18.18-13.65.26-19.33A38.44,38.44,0,0,0,351.14,174a42.27,42.27,0,0,0-4-8.18c-.55-.89-1-1.54-1.31-2Z" style="fill:#263238"></path><path d="M353.19,188.26c0,.14-5.6.25-12.5.25s-12.5-.11-12.5-.25,5.6-.26,12.5-.26S353.19,188.11,353.19,188.26Z" style="fill:#263238"></path><path d="M353.19,219.39c0,.14-5.6.25-12.5.25s-12.5-.11-12.5-.25,5.6-.26,12.5-.26S353.19,219.25,353.19,219.39Z" style="fill:#263238"></path><path d="M353.19,250.52c0,.14-5.6.26-12.5.26s-12.5-.12-12.5-.26,5.6-.25,12.5-.25S353.19,250.38,353.19,250.52Z" style="fill:#263238"></path><path d="M353.19,281.65c0,.15-5.6.26-12.5.26s-12.5-.11-12.5-.26,5.6-.25,12.5-.25S353.19,281.51,353.19,281.65Z" style="fill:#263238"></path><path d="M349.46,247.86a.57.57,0,0,0,.59.55.55.55,0,1,0,0-1.1A.57.57,0,0,0,349.46,247.86Z" style="fill:#263238"></path><path d="M339.53,247.86a.57.57,0,0,0,.59.55.55.55,0,1,0,0-1.1A.57.57,0,0,0,339.53,247.86Z" style="fill:#263238"></path><path d="M329.6,247.86a.58.58,0,0,0,.6.55.55.55,0,1,0,0-1.1A.58.58,0,0,0,329.6,247.86Z" style="fill:#263238"></path><path d="M349.46,278.49a.57.57,0,0,0,.59.55.58.58,0,0,0,.6-.55.57.57,0,0,0-.6-.55A.56.56,0,0,0,349.46,278.49Z" style="fill:#263238"></path><path d="M339.53,278.49a.57.57,0,0,0,.59.55.58.58,0,0,0,.6-.55.57.57,0,0,0-.6-.55A.56.56,0,0,0,339.53,278.49Z" style="fill:#263238"></path><path d="M329.6,278.49a.58.58,0,0,0,.6.55.57.57,0,0,0,.59-.55.56.56,0,0,0-.59-.55A.57.57,0,0,0,329.6,278.49Z" style="fill:#263238"></path><ellipse cx="350.05" cy="215.42" rx="0.6" ry="0.61" style="fill:#263238"></ellipse><path d="M339.53,215.42a.6.6,0,0,0,.59.61.61.61,0,0,0,0-1.22A.6.6,0,0,0,339.53,215.42Z" style="fill:#263238"></path><ellipse cx="330.2" cy="215.42" rx="0.6" ry="0.61" style="fill:#263238"></ellipse><rect x="348.02" y="191.25" width="1.66" height="3.47" transform="translate(697.69 385.98) rotate(180)" style="fill:#263238"></rect><rect x="344.46" y="191.25" width="1.66" height="3.47" transform="translate(690.57 385.98) rotate(180)" style="fill:#263238"></rect><rect x="331.2" y="371.54" width="16.09" height="30.77" transform="translate(678.5 773.86) rotate(180)" style="fill:#455a64"></rect><path d="M351.9,408h0a6.26,6.26,0,0,0-2.26-4.9l-2.34-2.26-16.1.19-1.42,1.27a6.74,6.74,0,0,0-2.55,4.57v.23Z" style="fill:#455a64"></path><rect x="325.27" y="407.12" width="28.27" height="2.84" rx="1.37" transform="translate(678.81 817.08) rotate(180)" style="fill:#455a64"></rect><rect x="328.91" y="375.69" width="20.68" height="2.17" rx="1.04" style="fill:#455a64"></rect><path d="M348.54,377.86c0,.06-4.16.1-9.29.1s-9.29,0-9.29-.1,4.16-.11,9.29-.11S348.54,377.8,348.54,377.86Z" style="fill:#263238"></path><path d="M348.54,375.69c0,.06-4.16.11-9.29.11s-9.29-.05-9.29-.11,4.16-.1,9.29-.1S348.54,375.64,348.54,375.69Z" style="fill:#263238"></path><rect x="328.91" y="381.28" width="20.68" height="2.17" rx="1.04" style="fill:#455a64"></rect><path d="M348.54,383.44c0,.06-4.16.11-9.29.11s-9.29-.05-9.29-.11,4.16-.1,9.29-.1S348.54,383.39,348.54,383.44Z" style="fill:#263238"></path><path d="M348.54,381.28c0,.06-4.16.1-9.29.1s-9.29,0-9.29-.1,4.16-.11,9.29-.11S348.54,381.22,348.54,381.28Z" style="fill:#263238"></path><rect x="328.91" y="386.86" width="20.68" height="2.17" rx="1.04" style="fill:#455a64"></rect><path d="M348.54,389c0,.06-4.16.1-9.29.1s-9.29,0-9.29-.1,4.16-.11,9.29-.11S348.54,389,348.54,389Z" style="fill:#263238"></path><path d="M348.54,386.86c0,.06-4.16.11-9.29.11s-9.29-.05-9.29-.11,4.16-.1,9.29-.1S348.54,386.81,348.54,386.86Z" style="fill:#263238"></path><rect x="328.91" y="392.45" width="20.68" height="2.17" rx="1.04" style="fill:#455a64"></rect><path d="M348.54,394.61c0,.06-4.16.11-9.29.11s-9.29-.05-9.29-.11,4.16-.1,9.29-.1S348.54,394.56,348.54,394.61Z" style="fill:#263238"></path><path d="M348.54,392.45c0,.06-4.16.1-9.29.1s-9.29,0-9.29-.1,4.16-.11,9.29-.11S348.54,392.39,348.54,392.45Z" style="fill:#263238"></path><rect x="328.91" y="398.03" width="20.68" height="2.17" rx="1.04" style="fill:#455a64"></rect><path d="M348.54,400.2c0,.06-4.16.1-9.29.1s-9.29,0-9.29-.1,4.16-.1,9.29-.1S348.54,400.14,348.54,400.2Z" style="fill:#263238"></path><path d="M348.54,398c0,.06-4.16.11-9.29.11S330,398.09,330,398s4.16-.1,9.29-.1S348.54,398,348.54,398Z" style="fill:#263238"></path><path d="M243.14,162.62a5.53,5.53,0,0,1,8.7-.26c4,4.81,9.19,13.22,9.19,24.16V320.6h-24.6s-1.54-116.4-1.54-134.08A40.17,40.17,0,0,1,243.14,162.62Z" style="fill:#840000"></path><path d="M243.14,162.62a31.43,31.43,0,0,0-1.85,2.59,41.44,41.44,0,0,0-4.12,8.17,38.4,38.4,0,0,0-2.4,14.29c0,5.68.11,12.16.18,19.34.31,28.73.74,68.68,1.22,113.6v.25h25.11v-.26c0-47.42-.06-90-.08-120.81,0-3.84,0-7.5,0-11,0-1.73,0-3.42-.13-5.05a33,33,0,0,0-.71-4.7,39.16,39.16,0,0,0-6.44-14.17c-.62-.88-1.25-1.68-1.85-2.41a5.72,5.72,0,0,0-2.08-1.67,5.56,5.56,0,0,0-4.11-.22A5.25,5.25,0,0,0,243.7,162a5.11,5.11,0,0,0-.56.67s.19-.23.6-.63a5.28,5.28,0,0,1,2.16-1.29,5.5,5.5,0,0,1,4,.26c1.52.66,2.56,2.36,3.83,4.06a39.27,39.27,0,0,1,6.33,14.12,32.66,32.66,0,0,1,.68,4.66c.14,1.62.11,3.29.11,5,0,3.46,0,7.12,0,11,0,30.77,0,73.39-.07,120.81l.25-.25h-24.6l.25.25c-.55-44.91-1-84.86-1.38-113.59-.1-7.18-.19-13.66-.26-19.34a38.39,38.39,0,0,1,2.3-14.22,42.27,42.27,0,0,1,4-8.18c.55-.89,1-1.54,1.31-2S243.14,162.62,243.14,162.62Z" style="fill:#263238"></path><path d="M235.3,187.68c0,.14,5.6.26,12.5.26s12.5-.12,12.5-.26-5.6-.25-12.5-.25S235.3,187.54,235.3,187.68Z" style="fill:#263238"></path><path d="M235.3,218.82c0,.14,5.6.25,12.5.25s12.5-.11,12.5-.25-5.6-.26-12.5-.26S235.3,218.67,235.3,218.82Z" style="fill:#263238"></path><path d="M235.3,250c0,.14,5.6.25,12.5.25s12.5-.11,12.5-.25-5.6-.26-12.5-.26S235.3,249.81,235.3,250Z" style="fill:#263238"></path><path d="M235.3,281.08c0,.14,5.6.26,12.5.26s12.5-.12,12.5-.26-5.6-.25-12.5-.25S235.3,280.94,235.3,281.08Z" style="fill:#263238"></path><path d="M283.82,101.1c5.35-4,12.9-3.33,18.13,1,15.56,12.93,23.23,32.28,23.23,47.6V322.93H263.87S260,174.47,260,149.71C260,134.67,270.18,111.39,283.82,101.1Z" style="fill:#e0e0e0"></path><path d="M283.82,101.1s-.31.23-.9.71a28.34,28.34,0,0,0-2.55,2.21,54.47,54.47,0,0,0-8.29,10,78.2,78.2,0,0,0-4.69,8.2,76.25,76.25,0,0,0-4.31,10.41,63.52,63.52,0,0,0-2.91,12.66c-.06.58-.15,1.15-.18,1.74s-.05,1.17-.08,1.77c-.07,1.19,0,2.38,0,3.6,0,2.44.05,4.94.08,7.5.62,41,2,98.22,3.65,163v.25h61.81v-.26c0-34.66,0-67.45,0-97.14,0-14.85,0-28.91,0-42.06q0-9.85,0-19,0-4.56,0-8.94c0-2.92,0-5.76-.09-8.55a59.91,59.91,0,0,0-3.06-15.56,65.68,65.68,0,0,0-5.9-12.83,65,65,0,0,0-14.63-17.07,16.1,16.1,0,0,0-7.48-3.26,14.68,14.68,0,0,0-6,.35,14.22,14.22,0,0,0-3.37,1.49l-1,.73,1.05-.69A14.66,14.66,0,0,1,288.25,99a14.5,14.5,0,0,1,5.92-.3,15.93,15.93,0,0,1,7.39,3.26,65.39,65.39,0,0,1,14.52,17,66.43,66.43,0,0,1,5.83,12.8,59.38,59.38,0,0,1,3,15.48c0,44.51,0,106.35,0,175.66l.26-.25H263.87l.25.25c-1.65-64.82-3.11-122-3.82-163q0-3.85-.09-7.5c0-1.21-.06-2.42,0-3.6,0-.59,0-1.17.07-1.75s.12-1.16.18-1.73a62.42,62.42,0,0,1,2.86-12.6,75.65,75.65,0,0,1,4.26-10.4,80.49,80.49,0,0,1,4.64-8.2,55.94,55.94,0,0,1,8.21-10,32.12,32.12,0,0,1,2.51-2.23Z" style="fill:#263238"></path><path d="M296.16,103.38s23.6,19,23.8,44.36v67.72H309.84l.62-59s1.29-11.21-4.8-30.91A120.41,120.41,0,0,0,296.16,103.38Z" style="fill:#fff"></path><path d="M261.22,156.47c0,.14,14.06.25,31.41.25s31.41-.11,31.41-.25-14.06-.26-31.41-.26S261.22,156.33,261.22,156.47Z" style="fill:#263238"></path><path d="M261.22,180c0,.15,14.06.26,31.41.26S324,180.18,324,180s-14.06-.25-31.41-.25S261.22,179.89,261.22,180Z" style="fill:#263238"></path><path d="M261.22,203.6c0,.14,14.06.26,31.41.26s31.41-.12,31.41-.26-14.06-.25-31.41-.25S261.22,203.46,261.22,203.6Z" style="fill:#263238"></path><path d="M261.22,227.17c0,.14,14.06.26,31.41.26s31.41-.12,31.41-.26-14.06-.25-31.41-.25S261.22,227,261.22,227.17Z" style="fill:#263238"></path><polygon points="369 369.02 369 338.76 328.08 298.63 310.65 244.02 310.65 377.14 369 369.02" style="fill:#f5f5f5"></polygon><polygon points="369 359.03 310.66 366.79 310.66 377.14 369 369.02 369 359.03" style="fill:#840000"></polygon><path d="M369,369s-.36,0-1.05.12l-3.05.4-11.67,1.57L310.63,377l.22.19c0-29.05,0-67.5.06-109.55V244l-.5.07c6.26,19.59,12.16,38,17.46,54.6l0,.06,0,0,41,40.07,0-.1c0,9.54.06,17.09.08,22.27,0,2.58,0,4.57,0,5.93,0,.67,0,1.18,0,1.54s0,.53,0,.53a4.9,4.9,0,0,0,0-.51c0-.35,0-.85,0-1.51,0-1.35,0-3.33,0-5.9,0-5.2.05-12.77.08-22.35v-.06l0,0-40.86-40.19.06.09c-5.29-16.6-11.16-35-17.41-54.62l-.49-1.55v25.2c0,42.05,0,80.5.06,109.55v.22l.22,0,42.68-6L365,369.63l3-.44Z" style="fill:#263238"></path><rect x="239.49" y="371.54" width="16.09" height="30.77" transform="translate(495.06 773.86) rotate(180)" style="fill:#455a64"></rect><path d="M260.18,408h0a6.28,6.28,0,0,0-2.25-4.9l-2.35-2.26-16.09.19-1.42,1.27a6.72,6.72,0,0,0-2.56,4.57v.23Z" style="fill:#455a64"></path><rect x="233.55" y="407.12" width="28.27" height="2.84" rx="1.37" transform="translate(495.37 817.08) rotate(180)" style="fill:#455a64"></rect><path d="M252.64,355.84a1.37,1.37,0,1,0,1.37-1.37A1.36,1.36,0,0,0,252.64,355.84Z" style="fill:#ebebeb"></path><path d="M274.09,228.07c.1-8.32,4.68-15.68,9.32-22.87a21.15,21.15,0,0,1,5.37-5.95,6.23,6.23,0,0,1,7.26,0,21.76,21.76,0,0,1,5.3,5.93c4.63,7.19,9.22,14.55,9.31,22.87.11,9.75,0,149.07,0,149.07H274.09S274,237.82,274.09,228.07Z" style="fill:#f5f5f5"></path><path d="M282.15,206.71a25.46,25.46,0,0,1,6.12-7.19,6.81,6.81,0,0,1,8.28,0,25.88,25.88,0,0,1,6,7.16,70.12,70.12,0,0,1,7.26,15.42L274.93,222A67.42,67.42,0,0,1,282.15,206.71Z" style="fill:#840000"></path><path d="M274.93,222c0,.14,7.82.28,17.46.31s17.45-.06,17.45-.2-7.81-.28-17.45-.31S274.93,221.88,274.93,222Z" style="fill:#263238"></path><path d="M305.07,219a.66.66,0,1,0,.66-.66A.66.66,0,0,0,305.07,219Z" style="fill:#263238"></path><path d="M298.76,219a.67.67,0,0,0,1.33,0,.67.67,0,0,0-1.33,0Z" style="fill:#263238"></path><path d="M292.45,219a.67.67,0,1,0,.67-.66A.66.66,0,0,0,292.45,219Z" style="fill:#263238"></path><circle cx="286.81" cy="218.98" r="0.66" style="fill:#263238"></circle><path d="M279.84,219a.66.66,0,0,0,1.32,0,.66.66,0,1,0-1.32,0Z" style="fill:#263238"></path><path d="M274.09,228.07s0,.25,0,.73,0,1.21,0,2.15c0,1.9,0,4.69,0,8.31,0,7.25,0,17.81-.07,31.05,0,26.52-.06,63.78-.09,106.83v.25h37.06V358.48c0-28.21,0-55.09,0-79.53,0-12.22,0-23.84,0-34.71,0-5.43,0-10.68,0-15.72a30.7,30.7,0,0,0-3.75-14c-1.05-2.07-2.2-4-3.36-5.89s-2.27-3.7-3.53-5.38a19.31,19.31,0,0,0-4.31-4.3,6.41,6.41,0,0,0-5.59-.69,7.49,7.49,0,0,0-2.35,1.4,18.21,18.21,0,0,0-1.9,1.81,27.94,27.94,0,0,0-3,4c-1.69,2.65-3.21,5.09-4.44,7.37a36.32,36.32,0,0,0-4.19,11.11c-.12.67-.21,1.27-.25,1.78s-.09.95-.1,1.3c0,.7,0,1,0,1s0-.35.08-1a12.35,12.35,0,0,1,.12-1.29c0-.51.15-1.1.27-1.77a36.82,36.82,0,0,1,4.26-11c1.24-2.27,2.77-4.7,4.48-7.34a27.58,27.58,0,0,1,2.95-3.9,18.62,18.62,0,0,1,1.88-1.77,7.05,7.05,0,0,1,2.27-1.35,6.14,6.14,0,0,1,5.33.67,18.92,18.92,0,0,1,4.22,4.25c1.23,1.65,2.33,3.51,3.5,5.36s2.29,3.81,3.33,5.87a30.44,30.44,0,0,1,3.68,13.8q0,7.56,0,15.73c0,10.87,0,22.48,0,34.7,0,24.44,0,51.32,0,79.53v18.66l.25-.25H274.09l.25.25c0-43.05-.07-80.31-.09-106.82,0-13.25-.06-23.8-.07-31.06,0-3.62,0-6.41,0-8.31,0-.94,0-1.65,0-2.15S274.09,228.07,274.09,228.07Z" style="fill:#263238"></path><path d="M292.84,236.41a9.42,9.42,0,0,1,9.42,9.42H283.42A9.42,9.42,0,0,1,292.84,236.41Z" style="fill:#455a64"></path><polygon points="215.7 369.02 215.7 338.76 256.61 298.63 274.05 244.02 274.05 377.14 215.7 369.02" style="fill:#f5f5f5"></polygon><polygon points="274.09 377.14 274.05 368.09 215.7 360.7 215.7 369.02 274.09 377.14" style="fill:#840000"></polygon><path d="M215.7,369l1,.16,3,.44,11.61,1.66,42.68,6,.22,0v-.22c0-29.05,0-67.5.06-109.55v-25.2l-.5,1.55-17.4,54.62.06-.09c-16.35,16.07-30.33,29.82-40.86,40.19l0,0v.06c0,9.58.06,17.15.08,22.35,0,2.57,0,4.55,0,5.9,0,.66,0,1.16,0,1.51s0,.51,0,.51,0-.19,0-.53V367c0-1.36,0-3.35,0-5.93,0-5.18,0-12.73.08-22.27l0,.1,41-40.07,0,0,0-.06c5.3-16.59,11.19-35,17.46-54.6l-.5-.07v23.57c0,42.05,0,80.5.06,109.55l.22-.19-42.6-5.83-11.66-1.57-3.05-.4C216.07,369.06,215.7,369,215.7,369Z" style="fill:#263238"></path><g style="opacity:0.30000000000000004"><path d="M265.5,375.73V354.47s.67-7.47,6.12-9.35V257.75L274.05,244V377.35Z"></path></g><path d="M274.44,274.1c0,.15,8,.26,17.93.26s17.94-.11,17.94-.26-8-.25-17.94-.25S274.44,274,274.44,274.1Z" style="fill:#263238"></path><path d="M274.44,312.73c0,.14,8,.26,17.93.26s17.94-.12,17.94-.26-8-.26-17.94-.26S274.44,312.59,274.44,312.73Z" style="fill:#263238"></path><g style="opacity:0.30000000000000004"><path d="M291.61,236.49l7.81,9.34h-5.37l-6.24-8A11.68,11.68,0,0,1,291.61,236.49Z" style="fill:#fff"></path></g><rect x="237.19" y="375.69" width="20.68" height="2.17" rx="1.04" style="fill:#455a64"></rect><path d="M256.82,377.86c0,.06-4.16.1-9.29.1s-9.29,0-9.29-.1,4.16-.11,9.29-.11S256.82,377.8,256.82,377.86Z" style="fill:#263238"></path><path d="M256.82,375.69c0,.06-4.16.11-9.29.11s-9.29-.05-9.29-.11,4.16-.1,9.29-.1S256.82,375.64,256.82,375.69Z" style="fill:#263238"></path><rect x="237.19" y="381.28" width="20.68" height="2.17" rx="1.04" style="fill:#455a64"></rect><path d="M256.82,383.44c0,.06-4.16.11-9.29.11s-9.29-.05-9.29-.11,4.16-.1,9.29-.1S256.82,383.39,256.82,383.44Z" style="fill:#263238"></path><path d="M256.82,381.28c0,.06-4.16.1-9.29.1s-9.29,0-9.29-.1,4.16-.11,9.29-.11S256.82,381.22,256.82,381.28Z" style="fill:#263238"></path><rect x="237.19" y="386.86" width="20.68" height="2.17" rx="1.04" style="fill:#455a64"></rect><path d="M256.82,389c0,.06-4.16.1-9.29.1s-9.29,0-9.29-.1,4.16-.11,9.29-.11S256.82,389,256.82,389Z" style="fill:#263238"></path><path d="M256.82,386.86c0,.06-4.16.11-9.29.11s-9.29-.05-9.29-.11,4.16-.1,9.29-.1S256.82,386.81,256.82,386.86Z" style="fill:#263238"></path><rect x="237.19" y="392.45" width="20.68" height="2.17" rx="1.04" style="fill:#455a64"></rect><path d="M256.82,394.61c0,.06-4.16.11-9.29.11s-9.29-.05-9.29-.11,4.16-.1,9.29-.1S256.82,394.56,256.82,394.61Z" style="fill:#263238"></path><path d="M256.82,392.45c0,.06-4.16.1-9.29.1s-9.29,0-9.29-.1,4.16-.11,9.29-.11S256.82,392.39,256.82,392.45Z" style="fill:#263238"></path><rect x="237.19" y="398.03" width="20.68" height="2.17" rx="1.04" style="fill:#455a64"></rect><path d="M256.82,400.2c0,.06-4.16.1-9.29.1s-9.29,0-9.29-.1,4.16-.1,9.29-.1S256.82,400.14,256.82,400.2Z" style="fill:#263238"></path><path d="M256.82,398c0,.06-4.16.11-9.29.11s-9.29-.05-9.29-.11,4.16-.1,9.29-.1S256.82,398,256.82,398Z" style="fill:#263238"></path><polygon points="274.44 352.85 269.77 363.19 269.77 410.6 291.1 410.6 291.1 352.85 274.44 352.85" style="fill:#f5f5f5"></polygon><polygon points="310.16 352.85 314.83 363.19 314.83 410.6 293.5 410.6 293.5 352.85 310.16 352.85" style="fill:#f5f5f5"></polygon><polyline points="274.44 352.85 269.77 363.19 269.77 410.6 291.1 410.6 291.1 377.39" style="fill:#f5f5f5"></polyline><path d="M291.1,377.39a2.83,2.83,0,0,1,0,.63l0,1.81c0,1.62,0,3.92.07,6.82,0,5.89.05,14.18.09,24v.24h-.24l-21.33,0h-.26V408.5c0-18.59.08-35.07.11-45.31v-.06c1.49-3.24,2.68-5.8,3.51-7.6l.94-2,.26-.51c.06-.12.09-.17.1-.17l-.06.18-.22.53-.87,2-3.38,7.65,0-.06c0,10.24.06,26.72.1,45.31v2.1l-.26-.26,21.33,0-.23.24c0-9.77.07-18.06.09-24,0-2.9.05-5.2.07-6.82l0-1.81C291.08,377.61,291.09,377.39,291.1,377.39Z" style="fill:#263238"></path><polyline points="310.16 352.85 314.83 363.19 314.83 410.6 293.5 410.6 293.5 377.39" style="fill:#f5f5f5"></polyline><path d="M293.5,377.39s0,.22,0,.63l0,1.81c0,1.62,0,3.92.07,6.82,0,5.89.06,14.18.09,24l-.23-.24,21.33,0-.26.26v-2.1c0-18.59.08-35.07.1-45.31l0,.06-3.38-7.65-.87-2-.22-.53-.06-.18s0,0,.1.17l.26.51c.23.48.54,1.15,1,2,.82,1.8,2,4.36,3.5,7.6v.06c0,10.24.07,26.72.11,45.31v2.36h-.26l-21.33,0h-.24v-.24c0-9.77.07-18.06.1-24,0-2.9.05-5.2.06-6.82,0-.77,0-1.37,0-1.81A2.83,2.83,0,0,1,293.5,377.39Z" style="fill:#263238"></path><circle cx="281.05" cy="310.07" r="0.61" style="fill:#263238"></circle><circle cx="293.22" cy="310.07" r="0.61" style="fill:#263238"></circle><circle cx="305.38" cy="310.07" r="0.61" style="fill:#263238"></circle><path d="M281.66,350.7a.61.61,0,1,1-.61-.61A.61.61,0,0,1,281.66,350.7Z" style="fill:#263238"></path><circle cx="293.22" cy="350.41" r="0.61" style="fill:#263238"></circle><circle cx="305.38" cy="351.02" r="0.61" style="fill:#263238"></circle><path d="M281.66,270.68a.61.61,0,0,1-1.22,0,.61.61,0,1,1,1.22,0Z" style="fill:#263238"></path><path d="M239,247.29a.6.6,0,1,1-.59-.55A.57.57,0,0,1,239,247.29Z" style="fill:#263238"></path><path d="M249,247.29a.58.58,0,0,1-.6.55.57.57,0,0,1-.59-.55.56.56,0,0,1,.59-.55A.57.57,0,0,1,249,247.29Z" style="fill:#263238"></path><path d="M258.89,247.29a.6.6,0,0,1-1.2,0,.6.6,0,0,1,1.2,0Z" style="fill:#263238"></path><path d="M239,277.92a.6.6,0,1,1-.59-.55A.57.57,0,0,1,239,277.92Z" style="fill:#263238"></path><path d="M249,277.92a.58.58,0,0,1-.6.55.57.57,0,0,1-.59-.55.56.56,0,0,1,.59-.55A.57.57,0,0,1,249,277.92Z" style="fill:#263238"></path><path d="M258.89,277.92a.6.6,0,0,1-1.2,0,.6.6,0,0,1,1.2,0Z" style="fill:#263238"></path><ellipse cx="238.44" cy="214.85" rx="0.6" ry="0.61" style="fill:#263238"></ellipse><path d="M249,214.85a.6.6,0,0,1-.6.61.6.6,0,0,1-.59-.61.6.6,0,0,1,.59-.62A.61.61,0,0,1,249,214.85Z" style="fill:#263238"></path><ellipse cx="258.29" cy="214.85" rx="0.6" ry="0.61" style="fill:#263238"></ellipse><path d="M293.83,270.68a.61.61,0,0,1-.61.61.61.61,0,0,1-.62-.61.62.62,0,0,1,.62-.62A.61.61,0,0,1,293.83,270.68Z" style="fill:#263238"></path><path d="M306,270.68a.61.61,0,0,1-.62.61.61.61,0,0,1-.61-.61.61.61,0,0,1,.61-.62A.62.62,0,0,1,306,270.68Z" style="fill:#263238"></path><path d="M274.44,353.49c0,.14,8,.25,17.93.25s17.94-.11,17.94-.25-8-.26-17.94-.26S274.44,353.35,274.44,353.49Z" style="fill:#263238"></path><path d="M291.1,377.27c0,.15-4.76.26-10.64.26s-10.64-.11-10.64-.26,4.76-.26,10.64-.26S291.1,377.13,291.1,377.27Z" style="fill:#263238"></path><path d="M291.1,383.44c0,.15-4.76.26-10.64.26s-10.64-.11-10.64-.26,4.76-.26,10.64-.26S291.1,383.3,291.1,383.44Z" style="fill:#263238"></path><path d="M291.1,389.61a104.69,104.69,0,0,1-10.64.27,104.69,104.69,0,0,1-10.64-.27c0-.14,4.76-.26,10.64-.26S291.1,389.47,291.1,389.61Z" style="fill:#263238"></path><path d="M291.1,395.79c0,.14-4.76.26-10.64.26s-10.64-.12-10.64-.26,4.76-.26,10.64-.26S291.1,395.64,291.1,395.79Z" style="fill:#263238"></path><path d="M291.1,402c0,.14-4.76.26-10.64.26s-10.64-.12-10.64-.26,4.76-.26,10.64-.26S291.1,401.81,291.1,402Z" style="fill:#263238"></path><path d="M314.65,377.27c0,.15-4.77.26-10.64.26s-10.65-.11-10.65-.26S298.13,377,304,377,314.65,377.13,314.65,377.27Z" style="fill:#263238"></path><path d="M314.65,383.44c0,.15-4.77.26-10.64.26s-10.65-.11-10.65-.26,4.77-.26,10.65-.26S314.65,383.3,314.65,383.44Z" style="fill:#263238"></path><path d="M314.65,389.61a104.85,104.85,0,0,1-10.64.27,105,105,0,0,1-10.65-.27c0-.14,4.77-.26,10.65-.26S314.65,389.47,314.65,389.61Z" style="fill:#263238"></path><path d="M314.65,395.79c0,.14-4.77.26-10.64.26s-10.65-.12-10.65-.26,4.77-.26,10.65-.26S314.65,395.64,314.65,395.79Z" style="fill:#263238"></path><path d="M314.65,402c0,.14-4.77.26-10.64.26s-10.65-.12-10.65-.26,4.77-.26,10.65-.26S314.65,401.81,314.65,402Z" style="fill:#263238"></path><rect x="238.81" y="190.68" width="1.66" height="3.47" style="fill:#263238"></rect><rect x="242.37" y="190.68" width="1.66" height="3.47" style="fill:#263238"></rect><circle cx="248.3" cy="340.97" r="5.7" style="fill:#840000"></circle><rect x="323.07" y="340.97" width="21.93" height="5.7" style="fill:#840000"></rect></g><g id="freepik--Structure--inject-134"><rect x="418.33" y="245.97" width="5.51" height="223.88" style="fill:#455a64"></rect><rect x="458.57" y="245.97" width="5.51" height="223.97" style="fill:#455a64"></rect><rect x="418.33" y="245.97" width="45.75" height="5.14" style="fill:#455a64"></rect><polygon points="420.21 450.03 419.5 449.33 460.12 408.71 419.87 408.71 460.11 368.9 419.95 368.9 460.19 324.95 419.95 324.95 460.12 284.78 419.77 284.78 460.99 248.17 461.66 248.92 422.4 283.78 462.53 283.78 422.36 323.95 462.46 323.95 422.22 367.9 462.54 367.9 422.3 407.71 462.53 407.71 420.21 450.03" style="fill:#455a64"></polygon><rect x="390.26" y="286.51" width="1.55" height="58.14" transform="translate(75.45 706.61) rotate(-90)" style="fill:#455a64"></rect><rect x="390.26" y="275.22" width="1.55" height="58.14" transform="translate(86.74 695.32) rotate(-90)" style="fill:#455a64"></rect><rect x="356.26" y="309.22" width="12.84" height="1.44" transform="translate(52.74 672.62) rotate(-90)" style="fill:#455a64"></rect><polygon points="373.21 316.9 362.3 304.62 363.05 303.96 372.21 314.27 372.21 303.08 383.48 314.36 383.48 303.16 395.81 314.45 395.81 303.08 406.98 314.37 406.98 303.08 419.47 315.57 418.76 316.28 407.98 305.5 407.98 316.8 396.81 305.51 396.81 316.72 384.48 305.43 384.48 316.77 373.21 305.5 373.21 316.9" style="fill:#455a64"></polygon><rect x="390.26" y="357.29" width="1.55" height="58.14" transform="translate(4.67 777.39) rotate(-90)" style="fill:#455a64"></rect><rect x="390.26" y="346" width="1.55" height="58.14" transform="translate(15.96 766.1) rotate(-90)" style="fill:#455a64"></rect><rect x="356.26" y="379.99" width="12.84" height="1.44" transform="translate(-18.04 743.39) rotate(-90)" style="fill:#455a64"></rect><polygon points="373.21 387.68 362.3 375.4 363.05 374.74 372.21 385.05 372.21 373.86 383.48 385.13 383.48 373.93 395.81 385.23 395.81 373.85 406.98 385.14 406.98 373.86 419.47 386.35 418.76 387.06 407.98 376.28 407.98 387.58 396.81 376.29 396.81 387.5 384.48 376.2 384.48 387.55 373.21 376.28 373.21 387.68" style="fill:#455a64"></polygon></g><g id="freepik--Planet--inject-134"><ellipse cx="272.96" cy="53.52" rx="17.06" ry="16.21" transform="translate(57.92 229.95) rotate(-50.46)" style="fill:#840000"></ellipse><g style="opacity:0.2"><path d="M258.87,48.53a11.06,11.06,0,0,0,4.38-.82c.34-.13.19-.61-.1-.64-1.3-.13-2.53-.29-3.85-.3-.35,0-.73,0-1.11,0a15,15,0,0,0-.73,1.7A14,14,0,0,0,258.87,48.53Z"></path><path d="M260.36,51.18a25.1,25.1,0,0,0,10.28-2,29.21,29.21,0,0,0,9.06-5.94,24.81,24.81,0,0,0,3.17-3.63,13.74,13.74,0,0,0-1.43-.89,18.27,18.27,0,0,1-2.55,3.13,28.64,28.64,0,0,1-7.35,5.26,25.77,25.77,0,0,1-8.24,2.59,16,16,0,0,1-6.23-.09c-.1.36-.19.72-.27,1.09A15.12,15.12,0,0,0,260.36,51.18Z" style="fill:#fff"></path><path d="M267.86,41.07c1.64-.56,4.51-2.24,5.23-4.26a16.22,16.22,0,0,0-1.71.16,2,2,0,0,1-.2.31,7.77,7.77,0,0,1-3,2.28,11,11,0,0,1-5.34,1.23c-.28.23-.55.46-.81.71C263.81,42.14,266.27,41.62,267.86,41.07Z" style="fill:#fff"></path><path d="M262.62,56.76a32.52,32.52,0,0,0,12.16-3.39,30.28,30.28,0,0,0,9.57-6.72,23.3,23.3,0,0,0,2.43-3,15.39,15.39,0,0,0-2.49-2.85,24.69,24.69,0,0,1-3.45,3.93A31,31,0,0,1,272.56,50a31.44,31.44,0,0,1-9.81,2.93,24.56,24.56,0,0,1-5,0c-.43,0-.85-.11-1.27-.18a16.63,16.63,0,0,0,0,3.53A21.36,21.36,0,0,0,262.62,56.76Z"></path><path d="M269.91,65.76a55.06,55.06,0,0,1-7.09,1.47,12.66,12.66,0,0,0,1.08.72,50.26,50.26,0,0,0,15.91-4.78A55.81,55.81,0,0,0,288.67,58c.1-.33.2-.66.29-1a54.38,54.38,0,0,1-9.25,5.28A62.78,62.78,0,0,1,269.91,65.76Z"></path><path d="M269,43.41a15.42,15.42,0,0,0,6.18-3.87A13.31,13.31,0,0,0,277,37.11a15,15,0,0,0-1.52-.23,9,9,0,0,1-1.48,2,14.15,14.15,0,0,1-5.18,3.35A18.87,18.87,0,0,1,260,43.73c-.24.32-.47.64-.7,1C262.48,45.28,266.34,44.35,269,43.41Z" style="fill:#fff"></path><path d="M289.52,52.77a41.37,41.37,0,0,1-3.36,3.11,39.61,39.61,0,0,1-7.63,5,39.91,39.91,0,0,1-9.1,3c-2.89.63-6.13,1.35-9.1,1.07.25.29.51.57.79.84a29.43,29.43,0,0,0,6.94-.82A43,43,0,0,0,278.13,62a40.91,40.91,0,0,0,11.28-7.49.77.77,0,0,0,0-.15C289.49,53.84,289.51,53.3,289.52,52.77Z" style="fill:#fff"></path><path d="M277.56,59.78a42.74,42.74,0,0,0,10.89-7.39l1-1a16.19,16.19,0,0,0-1.67-6A26.53,26.53,0,0,1,284.48,49a38.08,38.08,0,0,1-9.38,6.17A33,33,0,0,1,264,58.38a26.81,26.81,0,0,1-6.14-.15l-1.07-.18a15.9,15.9,0,0,0,2.48,5.58,26.44,26.44,0,0,0,4.54,0A38.67,38.67,0,0,0,277.56,59.78Z" style="fill:#fff"></path><path d="M274.69,41.64a33.38,33.38,0,0,1-3.42,2.42c-1.34.64-2.88.94-4.08,1.83a.66.66,0,0,0,.53,1.17,17.55,17.55,0,0,0,4.74-2,5.23,5.23,0,0,0,2.83-2.92C275.38,41.85,275.07,41.39,274.69,41.64Z"></path><path d="M277.25,66.77a4.33,4.33,0,0,0-.78.57c-.24.24,0,.69.32.51a3,3,0,0,1,.74-.33,3,3,0,0,0,.72-.39.25.25,0,0,0-.08-.48A1.28,1.28,0,0,0,277.25,66.77Z" style="fill:#fff"></path><path d="M285.25,61.24c-1.63.95-3.63,1.55-5.06,2.8-.32.29-.19.92.27.91,2-.07,4-1.39,5.72-2.41l.43-.26a17.11,17.11,0,0,0,1.54-2.9C287.2,60,286.24,60.67,285.25,61.24Z"></path><path d="M273.82,67.92c.46-.34,0-.91-.4-.86-1.51.14-3,.93-4.53,1.28-1,.24-2,.46-3,.64a15.79,15.79,0,0,0,2.29.77A11.37,11.37,0,0,0,273.82,67.92Z" style="fill:#fff"></path></g><path d="M278.48,67.88a3.24,3.24,0,0,1-.46.26c-.31.15-.77.34-1.35.55a15,15,0,0,1-4.74.79,16.81,16.81,0,0,1-2.65-.22,13.54,13.54,0,0,1-2.09-.56c-.29-.09-.55-.21-.77-.3a3.85,3.85,0,0,1-.57-.27,2.72,2.72,0,0,1-.47-.26c0-.05.7.3,1.87.67a15.13,15.13,0,0,0,2.07.49,15.83,15.83,0,0,0,7.29-.51C277.78,68.16,278.46,67.84,278.48,67.88Z" style="fill:#fff"></path><path d="M285.11,42.63c.07,0-.14.45-.6,1.13l-.39.57c-.15.2-.32.4-.51.63a18,18,0,0,1-1.32,1.48l-.82.81c-.28.29-.61.55-.94.83a25.62,25.62,0,0,1-2.19,1.69,28.77,28.77,0,0,1-11.7,4.72c-1,.13-1.88.28-2.75.31-.43,0-.85.06-1.25.05l-1.16,0a18.6,18.6,0,0,1-2-.14l-.8-.1-.67-.14c-.8-.18-1.24-.32-1.22-.4s.47-.11,1.27-.08l.67,0h.8c.57,0,1.21,0,1.93,0l1.11-.05c.39,0,.79-.09,1.21-.13.84-.07,1.71-.25,2.64-.4a36.36,36.36,0,0,0,5.85-1.74,36.11,36.11,0,0,0,5.42-2.81c.77-.53,1.53-1,2.18-1.54.33-.26.66-.5,1-.75l.84-.73c.56-.45,1-.93,1.41-1.32.21-.19.41-.37.58-.55l.46-.48C284.7,42.88,285,42.58,285.11,42.63Z" style="fill:#840000"></path><path d="M288.66,57.8s0,0,0-.13,0-.21.07-.36c.07-.34.17-.8.29-1.4l0,0a0,0,0,0,0,0,.07l0,0,0-.24h0v0h0v0a16.62,16.62,0,0,0-.17-5.45l0-.08s0,.1,0,.12l0,0a16.06,16.06,0,0,0-9.73-11.65l.13,0h0l-.06.05-.07,0a14.78,14.78,0,0,0-2.19-.72,15.53,15.53,0,0,0-9.8.9,17.62,17.62,0,0,0-6.54,4.82,16.7,16.7,0,0,0-2.84,4.71c-.24.61-.4,1.1-.5,1.43,0,.15-.08.28-.11.37s0,.13-.05.13a12.42,12.42,0,0,1,.57-2,16.37,16.37,0,0,1,2.79-4.8,17.91,17.91,0,0,1,6.59-4.91,16.81,16.81,0,0,1,4.72-1.26,14.71,14.71,0,0,1,7.45,1.07l-.13,0h0l.06,0,.07,0a16.12,16.12,0,0,1,9.81,11.84l0,0s0,.11,0,.12l0-.08a16.29,16.29,0,0,1,.1,5.5v0h0l0,0,0,.23,0,0s0,.07,0,.07l0,0c-.15.59-.26,1.06-.34,1.39q-.06.23-.09.36Z" style="fill:#fff"></path><path d="M257.28,59.74c-.07-.18-.13-.37-.2-.55-7.2,3.9-10.45,6.47-10.92,7.67a.31.31,0,0,0,0,.22l0,0a.26.26,0,0,0,.17.12c.83.34,5.24.64,27.21-9.36,13.22-6,22.43-12,25-14.5a.45.45,0,0,0-.34-.78,55.65,55.65,0,0,0-10.36,2.86l.18.4c4.21-1.46,6.94-2,7.19-1.45.49,1.21-9.21,6.79-21.66,12.47s-22.95,9.3-23.45,8.09C249.85,64.31,252.64,62.33,257.28,59.74Z" style="fill:#840000"></path><path d="M287.05,43.91l.18.32c6.52-2.31,11.29-3.46,12.7-2.9a1.07,1.07,0,0,1,.72,1.05c0,.48,0,2-8.1,7A169.59,169.59,0,0,1,274,59.14c-2.84,1.29-5.87,2.63-8.86,3.88-8.63,3.62-16.92,6.51-19.41,5.51a1.43,1.43,0,0,1-.89-.85,1.62,1.62,0,0,1,0-1.27c.85-2.14,6-5.43,11.8-8.54a1.68,1.68,0,0,1-.06-.24C246.94,63,241,67.53,241.46,69.41c1,4,16-.86,33.27-8.73S305.07,43.44,304,40.89C303.34,39.19,296.57,40.52,287.05,43.91Z" style="fill:#840000"></path><path d="M291.16,45.82c.14,0-.66.79-.69.81a9.5,9.5,0,0,1-1.06.73c-1,.64-2,1.22-3,1.78a37.21,37.21,0,0,0-4.28,2.37c-.15.11,0,.3.14.25a26.85,26.85,0,0,0,8.77-4.86c.35-.28.92-.68.73-1.19a.48.48,0,0,0-.72-.27.2.2,0,0,0,.08.38Z" style="fill:#840000"></path><g style="opacity:0.30000000000000004"><path d="M257.28,59.74c-.07-.18-.13-.37-.2-.55-7.2,3.9-10.45,6.47-10.92,7.67a.31.31,0,0,0,0,.22l0,0a.26.26,0,0,0,.17.12c.83.34,5.24.64,27.21-9.36,13.22-6,22.43-12,25-14.5a.45.45,0,0,0-.34-.78,55.65,55.65,0,0,0-10.36,2.86l.18.4c4.21-1.46,6.94-2,7.19-1.45.49,1.21-9.21,6.79-21.66,12.47s-22.95,9.3-23.45,8.09C249.85,64.31,252.64,62.33,257.28,59.74Z"></path><path d="M291.16,45.82c.14,0-.66.79-.69.81a9.5,9.5,0,0,1-1.06.73c-1,.64-2,1.22-3,1.78a37.21,37.21,0,0,0-4.28,2.37c-.15.11,0,.3.14.25a26.85,26.85,0,0,0,8.77-4.86c.35-.28.92-.68.73-1.19a.48.48,0,0,0-.72-.27.2.2,0,0,0,.08.38Z"></path></g><g style="opacity:0.30000000000000004"><path d="M287.05,43.91l.18.32c6.52-2.31,11.29-3.46,12.7-2.9a1.07,1.07,0,0,1,.72,1.05c0,.48,0,2-8.1,7A169.59,169.59,0,0,1,274,59.14c-2.84,1.29-5.87,2.63-8.86,3.88-8.63,3.62-16.92,6.51-19.41,5.51a1.43,1.43,0,0,1-.89-.85,1.62,1.62,0,0,1,0-1.27c.85-2.14,6-5.43,11.8-8.54a1.68,1.68,0,0,1-.06-.24C246.94,63,241,67.53,241.46,69.41c1,4,16-.86,33.27-8.73S305.07,43.44,304,40.89C303.34,39.19,296.57,40.52,287.05,43.91Z"></path></g></g><g id="freepik--speech-bubble--inject-134"><path d="M67.35,186.87l-5.76-.7a21.94,21.94,0,0,1-12.83,3.7,22.08,22.08,0,1,1,18.53-9.21h0Z" style="fill:#fff"></path><path d="M67.35,186.87s0-.15,0-.42,0-.69,0-1.2c0-1.07,0-2.61-.09-4.59l.14.06h0a.09.09,0,0,1-.12,0,.07.07,0,0,1,0-.09,22,22,0,0,0,3.87-9.84,22.57,22.57,0,0,0-.18-7,21.89,21.89,0,0,0-2.85-7.37,22.34,22.34,0,0,0-6-6.38,21.55,21.55,0,0,0-8.65-3.74,22.39,22.39,0,0,0-10,.44,21.52,21.52,0,0,0-9.12,5.18,22.72,22.72,0,0,0-3.44,4.16c-.45.77-.91,1.54-1.29,2.33l-.52,1.22-.26.6-.19.63A22.31,22.31,0,0,0,27.71,171a21.48,21.48,0,0,0,3.41,8.88,22.46,22.46,0,0,0,6.2,6.24,22.18,22.18,0,0,0,7.31,3.14l1.82.32c.6.09,1.2.1,1.79.15a19.8,19.8,0,0,0,3.37-.06,22.12,22.12,0,0,0,9.94-3.52l.05,0,4.24.56,1.12.16.39.06-.36,0-1.1-.12-4.31-.47h.06a22,22,0,0,1-10,3.64,19.29,19.29,0,0,1-3.42.09c-.59-.05-1.2-.06-1.8-.15l-1.85-.31a22.23,22.23,0,0,1-7.44-3.16A22.6,22.6,0,0,1,30.82,180a21.61,21.61,0,0,1-3.49-9,22.82,22.82,0,0,1,.91-10.26l.2-.63.26-.62c.18-.41.36-.82.53-1.24.39-.81.86-1.59,1.31-2.38a22.75,22.75,0,0,1,3.51-4.22,21.65,21.65,0,0,1,9.28-5.28A22.75,22.75,0,0,1,53.52,146a21.68,21.68,0,0,1,8.79,3.82,22.7,22.7,0,0,1,6,6.49,22.09,22.09,0,0,1,3,14.55,21.92,21.92,0,0,1-4,9.9l-.11-.11h0a.09.09,0,0,1,.12,0,.17.17,0,0,1,0,.05c0,2,0,3.57,0,4.65,0,.5,0,.9,0,1.18S67.35,186.87,67.35,186.87Z" style="fill:#263238"></path><polygon points="39.6 169.16 42.37 166.2 48.05 170.92 58.54 160.12 61.29 162.89 47.83 176.45 39.6 169.16" style="fill:#840000"></polygon></g><g id="freepik--chart-5--inject-134"><path d="M353,201a2.44,2.44,0,1,1-1.77,3A2.44,2.44,0,0,1,353,201Z" style="fill:#263238"></path><rect x="397.39" y="167.92" width="67.05" height="40.68" rx="4.48" style="fill:#fff"></rect><path d="M460,208.6a5.39,5.39,0,0,0,2-.54,4.45,4.45,0,0,0,2.32-3.23,13.7,13.7,0,0,0,.05-1.84c0-5.28-.05-12.88-.08-22.27,0-2.35,0-4.81,0-7.37a8.4,8.4,0,0,0-.11-1.89,4.2,4.2,0,0,0-.81-1.69,4.29,4.29,0,0,0-3.37-1.64l-17.64,0-40.43,0a4.2,4.2,0,0,0-3.92,2.66,6,6,0,0,0-.3,2.51V176q0,5.24,0,10.32t0,9.95v7.2a5.44,5.44,0,0,0,.29,2.22,4.25,4.25,0,0,0,3.24,2.63,16.09,16.09,0,0,0,2.21.06h10.79l15.37,0,22.26.08,6,0,1.58,0,.53,0-.53,0-1.58,0-6,0-22.26.08-15.37,0H403.37a17.79,17.79,0,0,1-2.29-.07,4.71,4.71,0,0,1-3.6-2.92,5.81,5.81,0,0,1-.34-2.39v-7.2c0-3.25,0-6.57,0-9.95v-13a6.65,6.65,0,0,1,.33-2.7,4.74,4.74,0,0,1,4.41-3l40.43,0,17.64,0a4.7,4.7,0,0,1,4.58,3.67,8.94,8.94,0,0,1,.11,2c0,2.56,0,5,0,7.37,0,9.39-.07,17-.09,22.27a12.73,12.73,0,0,1-.07,1.87,4.61,4.61,0,0,1-.57,1.55,4.5,4.5,0,0,1-3.4,2.18C460.14,208.61,460,208.6,460,208.6Z" style="fill:#263238"></path><path d="M419,184.64l5.17-5.32a12.09,12.09,0,0,0-7.63-3.21v7.44A4.69,4.69,0,0,1,419,184.64Z" style="fill:#455a64"></path><path d="M413.16,192.14c-2.55,2.6-4.18,4.25-5.24,5.29a12.07,12.07,0,0,0,7.58,3V193A4.76,4.76,0,0,1,413.16,192.14Z" style="fill:#e0e0e0"></path><path d="M411.23,189.07h-7.45a12.18,12.18,0,0,0,3.39,7.65c1.21-1.22,3.05-3.09,5.21-5.3A4.69,4.69,0,0,1,411.23,189.07Z" style="fill:#455a64"></path><path d="M412.12,185.39c-1.81-1.77-3.63-3.53-5.33-5.18a12.17,12.17,0,0,0-3,7.82h7.42A4.75,4.75,0,0,1,412.12,185.39Z" style="fill:#455a64"></path><path d="M415.5,183.53V176.1a12.11,12.11,0,0,0-8,3.36l5.34,5.17A4.71,4.71,0,0,1,415.5,183.53Z" style="fill:#455a64"></path><path d="M416.54,193v7.44a12.09,12.09,0,0,0,7.64-3.21c-1.3-1.29-3.16-3.12-5.31-5.22A4.61,4.61,0,0,1,416.54,193Z" style="fill:#e0e0e0"></path><path d="M419.62,191.23c2.51,2.45,4.19,4.1,5.29,5.22a12.14,12.14,0,0,0,3.15-7.38h-7.45A4.71,4.71,0,0,1,419.62,191.23Z" style="fill:#455a64"></path><path d="M419.72,185.4a4.72,4.72,0,0,1,.95,2.63h7.42a12.12,12.12,0,0,0-3.18-8Z" style="fill:#455a64"></path><path d="M448.22,184.46l5.18-5.32a12.14,12.14,0,0,0-7.63-3.21v7.44A4.77,4.77,0,0,1,448.22,184.46Z" style="fill:#455a64"></path><path d="M442.39,192c-2.55,2.61-4.18,4.26-5.24,5.29a12.13,12.13,0,0,0,7.58,3v-7.43A4.73,4.73,0,0,1,442.39,192Z" style="fill:#e0e0e0"></path><path d="M440.46,188.89H433a12.05,12.05,0,0,0,3.39,7.65c1.21-1.22,3.05-3.09,5.2-5.29A4.71,4.71,0,0,1,440.46,188.89Z" style="fill:#e0e0e0"></path><path d="M441.35,185.22,436,180a12.08,12.08,0,0,0-3,7.82h7.42A4.72,4.72,0,0,1,441.35,185.22Z" style="fill:#e0e0e0"></path><path d="M444.73,183.35v-7.43a12.09,12.09,0,0,0-8,3.36l5.33,5.18A4.75,4.75,0,0,1,444.73,183.35Z" style="fill:#455a64"></path><path d="M445.77,192.79v7.44A12.08,12.08,0,0,0,453.4,197c-1.29-1.28-3.16-3.11-5.3-5.21A4.79,4.79,0,0,1,445.77,192.79Z" style="fill:#e0e0e0"></path><path d="M448.85,191.05c2.51,2.45,4.18,4.11,5.29,5.22a12,12,0,0,0,3.14-7.38h-7.45A4.75,4.75,0,0,1,448.85,191.05Z" style="fill:#e0e0e0"></path><path d="M448.88,185.22a4.75,4.75,0,0,1,.95,2.63h7.42a12.12,12.12,0,0,0-3.18-8Z" style="fill:#e0e0e0"></path><path d="M354.52,203.35a6,6,0,0,1,.79-1l2.34-2.69,8.19-9.15.08-.09h7.22c6.7,0,12.76,0,17.15.08l5.19.08,1.41.05a2.8,2.8,0,0,1,.5,0,1.65,1.65,0,0,1-.5.06l-1.41,0-5.19.09c-4.39,0-10.45.07-17.15.07H366l.18-.08-8.33,9-2.44,2.59A8.54,8.54,0,0,1,354.52,203.35Z" style="fill:#263238"></path></g><g id="freepik--chart-4--inject-134"><path d="M323.45,132.5a2.44,2.44,0,1,1-1.77,3A2.44,2.44,0,0,1,323.45,132.5Z" style="fill:#263238"></path><rect x="363.36" y="96.96" width="81.37" height="49.37" rx="3.6" style="fill:#fff"></rect><path d="M441.13,146.33s.22,0,.65-.09a3.56,3.56,0,0,0,1.68-.85,3.52,3.52,0,0,0,1.19-2.74c0-1.25,0-2.68,0-4.29,0-6.48-.05-15.82-.08-27.36q0-4.34,0-9.06a9.32,9.32,0,0,0-.14-2.32,3.44,3.44,0,0,0-1.31-1.83,3.58,3.58,0,0,0-2.22-.62h-2.53l-21.68,0-49.67,0a3.35,3.35,0,0,0-2.65,1.3,3.58,3.58,0,0,0-.64,1.37,9,9,0,0,0-.07,1.58v19.16q0,6.23,0,12.23v8.85c0,.47,0,1,0,1.41a3.37,3.37,0,0,0,2.46,2.85,4.53,4.53,0,0,0,1.34.12h17.42l18.89,0,27.36.08,7.43.05,1.94,0,.66,0-.66,0-1.94,0-7.43.05-27.36.08-18.89,0H367.43a5.24,5.24,0,0,1-1.46-.14,3.86,3.86,0,0,1-2.82-3.25c0-.53,0-1,0-1.47v-8.85q0-6,0-12.23V108c0-2.14,0-4.3,0-6.48a9.68,9.68,0,0,1,.08-1.68,4.05,4.05,0,0,1,.73-1.59A3.89,3.89,0,0,1,367,96.7l49.67,0,21.68,0h2.53a3.93,3.93,0,0,1,2.46.7,3.81,3.81,0,0,1,1.46,2.06,4.05,4.05,0,0,1,.15,1.24v1.19q0,4.73,0,9.06c0,11.54-.06,20.88-.08,27.36,0,1.61,0,3,0,4.29a3.67,3.67,0,0,1-1.28,2.82,3.41,3.41,0,0,1-1.74.82A2.06,2.06,0,0,1,441.13,146.33Z" style="fill:#263238"></path><rect x="373.31" y="111.57" width="28.69" height="3.64" rx="1.44" style="fill:#e0e0e0"></rect><rect x="373.31" y="119.82" width="28.69" height="3.64" rx="1.44" style="fill:#e0e0e0"></rect><rect x="373.31" y="128.08" width="15.44" height="3.64" rx="1.44" style="fill:#e0e0e0"></rect><rect x="414.4" y="132.7" width="15.76" height="3.64" rx="1.44" style="fill:#e0e0e0"></rect><path d="M423.6,129.54A11.56,11.56,0,1,1,435.16,118,11.58,11.58,0,0,1,423.6,129.54Zm0-22.37A10.81,10.81,0,1,0,434.41,118,10.82,10.82,0,0,0,423.6,107.17Z" style="fill:#e0e0e0"></path><path d="M423.6,127a9,9,0,1,1,9-9A9,9,0,0,1,423.6,127Zm0-17.55a8.53,8.53,0,1,0,8.52,8.52A8.53,8.53,0,0,0,423.6,109.46Z" style="fill:#263238"></path><path d="M423.6,130.16A12.19,12.19,0,0,1,411.42,118h2A10.18,10.18,0,1,0,423.6,107.8v-2a12.18,12.18,0,0,1,0,24.36Z" style="fill:#840000"></path><path d="M424.09,109.21a.49.49,0,1,1-.49-.5A.49.49,0,0,1,424.09,109.21Z" style="fill:#263238"></path><path d="M424.09,126.74a.49.49,0,1,1-.49-.49A.49.49,0,0,1,424.09,126.74Z" style="fill:#263238"></path><circle cx="432.38" cy="117.98" r="0.49" style="fill:#263238"></circle><circle cx="414.89" cy="117.98" r="0.49" style="fill:#263238"></circle><path d="M423.26,115.13V116l-2,4.65h-1.38l2-4.44H420v.89h-1.12v-1.92Z" style="fill:#263238"></path><path d="M423.66,117.87c0-1.81,1-2.83,2.35-2.83s2.34,1,2.34,2.83-1,2.82-2.34,2.82S423.66,119.67,423.66,117.87Zm3.42,0c0-1.25-.44-1.76-1.07-1.76s-1.07.51-1.07,1.76.44,1.75,1.07,1.75S427.08,119.11,427.08,117.87Z" style="fill:#263238"></path><path d="M324,134.87a5.84,5.84,0,0,1,.78-.61l2.27-1.56,7.94-5.29.06,0h.07l6.65,0c5.51,0,10.49,0,14.1.08l4.27.08a9.68,9.68,0,0,1,1.56.1,8.39,8.39,0,0,1-1.56.1l-4.27.09c-3.61,0-8.59.07-14.1.07h-6.65l.13,0-8,5.14-2.34,1.44A4.49,4.49,0,0,1,324,134.87Z" style="fill:#263238"></path></g><g id="freepik--chart-3--inject-134"><path d="M269.72,113.3a2.44,2.44,0,1,1-1.77,3A2.44,2.44,0,0,1,269.72,113.3Z" style="fill:#263238"></path><rect x="171.27" y="88.44" width="60.53" height="50.78" rx="1.55" style="fill:#fff"></rect><path d="M230.25,139.21a1.81,1.81,0,0,0,.54-.12,1.53,1.53,0,0,0,.94-1.23c0-1.49,0-3.64,0-6.4,0-5.59,0-13.64-.09-23.57,0-5,0-10.43,0-16.28v-1.1a2.55,2.55,0,0,0-.1-1,1.41,1.41,0,0,0-.63-.69,2,2,0,0,0-1-.14H215.62l-42.8,0a1.31,1.31,0,0,0-1,.5,1.64,1.64,0,0,0-.27,1.19V98.8c0,3.69,0,7.34,0,10.92,0,7.16,0,14.06,0,20.64,0,1.65,0,3.27,0,4.88v2.38a1.33,1.33,0,0,0,1.21,1.36l9,0L198,139l23.57.08,6.4,0,1.67,0,.57,0-.57,0-1.67,0-6.4,0L198,139.4l-16.28,0h-9.08a1.79,1.79,0,0,1-1.64-1.82c0-.79,0-1.58,0-2.38v-4.88c0-6.58,0-13.48,0-20.64V90.39a4,4,0,0,1,0-.76,1.93,1.93,0,0,1,.34-.74,1.82,1.82,0,0,1,1.44-.71l42.8,0h14.22a2.3,2.3,0,0,1,1.21.19,1.8,1.8,0,0,1,.84.92A1.91,1.91,0,0,1,232,90v1.66c0,5.85,0,11.3,0,16.28,0,9.93-.06,18-.08,23.57,0,2.78,0,4.93-.06,6.41a1.59,1.59,0,0,1-1,1.27A1.1,1.1,0,0,1,230.25,139.21Z" style="fill:#263238"></path><rect x="178.21" y="95.8" width="21.35" height="2.71" rx="1.3" style="fill:#e0e0e0"></rect><path d="M223.51,118.57a4.05,4.05,0,0,1-.72-.43l-2-1.31L213.73,112l.27,0-8.57,7.5-.14.13-.16-.1-2.19-1.27-2.71-1.57.28,0-5.71,4.06-.13.09-.14-.08-4.59-3,.25,0-5.55,4.81-1.54,1.3a3,3,0,0,1-.57.42,2.8,2.8,0,0,1,.49-.51l1.47-1.39,5.43-4.93.11-.11.14.09,4.62,2.94h-.26l5.68-4.09.14-.09.14.08,2.72,1.57,2.18,1.27-.3,0,8.62-7.44.13-.11.14.1,7,5,1.92,1.41A3.28,3.28,0,0,1,223.51,118.57Z" style="fill:#455a64"></path><path d="M223.51,108.65a5.46,5.46,0,0,1-.78.78l-2.28,2.09c-2,1.81-4.85,4.3-8.13,7.23l-.13.11-.15-.09-9.11-5.54-1.6-1h.28l-6.77,4.6-.14.1-.14-.11-5.06-3.76h.25l-5.24,4.39-1.45,1.18a3.1,3.1,0,0,1-.53.39,2.54,2.54,0,0,1,.46-.48l1.38-1.26,5.11-4.53.12-.1.13.09,5.12,3.71h-.28l6.75-4.62.13-.1.15.09,1.6,1,9.08,5.58-.28,0,8.26-7.09,2.37-2A6.34,6.34,0,0,1,223.51,108.65Z" style="fill:#840000"></path><path d="M225.88,127a3,3,0,0,1-.71,0l-2,.05-7.51.08-24.8.08-12.16,0h-.25V127c0-6.66.07-12.37.1-16.48,0-2,.05-3.58.07-4.74l0-1.26a1.34,1.34,0,0,1,0-.43,1.84,1.84,0,0,1,0,.43l0,1.26c0,1.16,0,2.76.07,4.74,0,4.11,0,9.82.09,16.48l-.24-.24,12.16,0,24.8.08,7.51.08,2,0A3,3,0,0,1,225.88,127Z" style="fill:#e0e0e0"></path><path d="M190.84,117.62a.73.73,0,1,1-.73-.73A.73.73,0,0,1,190.84,117.62Z" style="fill:#455a64"></path><path d="M201.19,116.63a.74.74,0,1,1-.74-.73A.73.73,0,0,1,201.19,116.63Z" style="fill:#455a64"></path><path d="M214.41,111.83a.73.73,0,1,1-.73-.73A.73.73,0,0,1,214.41,111.83Z" style="fill:#455a64"></path><path d="M202.26,112.16a.73.73,0,0,1-1.46,0,.73.73,0,0,1,1.46,0Z" style="fill:#840000"></path><path d="M212.89,118.57a.73.73,0,1,1-.73-.73A.73.73,0,0,1,212.89,118.57Z" style="fill:#840000"></path><path d="M190.35,112.89a.74.74,0,1,1-.74-.73A.74.74,0,0,1,190.35,112.89Z" style="fill:#840000"></path><rect x="174.82" y="106.25" width="1.48" height="1.1" rx="0.53" style="fill:#e0e0e0"></rect><rect x="174.82" y="111.58" width="1.48" height="1.1" rx="0.53" style="fill:#e0e0e0"></rect><rect x="174.82" y="117.62" width="1.48" height="1.1" rx="0.53" style="fill:#e0e0e0"></rect><rect x="174.82" y="123.67" width="1.48" height="1.1" rx="0.53" style="fill:#e0e0e0"></rect><rect x="181.39" y="129.49" width="2.96" height="1.1" rx="0.53" style="fill:#e0e0e0"></rect><rect x="188.63" y="129.6" width="2.96" height="1.1" rx="0.53" style="fill:#e0e0e0"></rect><rect x="195.64" y="129.6" width="2.96" height="1.1" rx="0.53" style="fill:#e0e0e0"></rect><rect x="202.56" y="129.6" width="2.96" height="1.1" rx="0.53" style="fill:#e0e0e0"></rect><rect x="209.63" y="129.6" width="2.96" height="1.1" rx="0.53" style="fill:#e0e0e0"></rect><rect x="216.57" y="129.6" width="2.96" height="1.1" rx="0.53" style="fill:#e0e0e0"></rect><path d="M268.81,113.83a5.9,5.9,0,0,1-.87-.47l-2.34-1.45-8-5.14.13,0-6.65,0c-5.5,0-10.49,0-14.09-.08l-4.27-.08a9.9,9.9,0,0,1-1.57-.1,8.58,8.58,0,0,1,1.57-.1l4.27-.09c3.6,0,8.59-.07,14.09-.07h6.73l.06,0,7.94,5.3,2.26,1.56A3.89,3.89,0,0,1,268.81,113.83Z" style="fill:#263238"></path></g><g id="freepik--chart-2--inject-134"><path d="M233.62,225.61a2.44,2.44,0,1,1-1.77,3A2.44,2.44,0,0,1,233.62,225.61Z" style="fill:#263238"></path><rect x="141.1" y="183.4" width="63.08" height="61.67" rx="3.37" style="fill:#fff"></rect><path d="M200.82,245.07s.21,0,.62-.09a3.32,3.32,0,0,0,1.6-.82,3.37,3.37,0,0,0,1.07-2.65c0-1.19,0-2.56,0-4.1,0-6.18,0-15.1-.08-26.11,0-5.52,0-11.55,0-18,0-1.62,0-3.27,0-4.94v-1.26a3.57,3.57,0,0,0-.13-1.19,3.18,3.18,0,0,0-1.47-1.83,3.07,3.07,0,0,0-1.14-.38c-.39,0-.84,0-1.27,0h-8l-47.42,0a3.13,3.13,0,0,0-3.07,2.57,10.72,10.72,0,0,0,0,1.52V206c0,7.93,0,15.58,0,22.87,0,3.65,0,7.2,0,10.66,0,.84,0,1.75,0,2.54a3.11,3.11,0,0,0,1.11,2,3.27,3.27,0,0,0,2.17.72h2.45l18,0,26.11.09,7.1.05,1.85,0,.63,0-.63,0-1.85,0-7.1,0-26.11.08-18,0h-2.45a3.64,3.64,0,0,1-2.45-.82,3.52,3.52,0,0,1-1.28-2.31c-.07-.9,0-1.72,0-2.59q0-5.19,0-10.66c0-7.29,0-14.94,0-22.87q0-6,0-12.1v-6.19a11.14,11.14,0,0,1,.06-1.61,3.49,3.49,0,0,1,.66-1.53,3.63,3.63,0,0,1,2.92-1.47l47.42,0h8c.44,0,.86,0,1.33,0a3.57,3.57,0,0,1,1.31.44,3.67,3.67,0,0,1,1.67,2.1,4,4,0,0,1,.15,1.32v1.26c0,1.67,0,3.32,0,4.94,0,6.49,0,12.52,0,18,0,11-.06,19.93-.08,26.11,0,1.54,0,2.91,0,4.1a3.45,3.45,0,0,1-1.15,2.72,3.28,3.28,0,0,1-1.66.8A2.31,2.31,0,0,1,200.82,245.07Z" style="fill:#263238"></path><rect x="149.05" y="191.01" width="46.88" height="2.27" rx="1.09" style="fill:#e0e0e0"></rect><rect x="149.05" y="196.36" width="46.88" height="2.27" rx="1.09" style="fill:#e0e0e0"></rect><rect x="149.05" y="201.71" width="46.88" height="2.27" rx="1.09" style="fill:#e0e0e0"></rect><rect x="149.05" y="206.85" width="46.88" height="2.27" rx="1.09" style="fill:#e0e0e0"></rect><rect x="149.05" y="211.98" width="18.92" height="2.27" rx="1.09" style="fill:#e0e0e0"></rect><path d="M204.18,213.3a5.32,5.32,0,0,1,1.23-.1l3.35-.08c2.85,0,6.82-.07,11.29-.08h.1l.08.07,1.48,1.48c3.51,3.51,6.66,6.7,8.92,9l2.67,2.78a7.35,7.35,0,0,1,.92,1.07,7.13,7.13,0,0,1-1.07-.93l-2.78-2.66c-2.33-2.26-5.52-5.41-9-8.92-.5-.51-1-1-1.48-1.48l.19.08c-4.47,0-8.44,0-11.29-.09l-3.35-.08A6.79,6.79,0,0,1,204.18,213.3Z" style="fill:#263238"></path><path d="M195.41,231.82s-10.17.08-22.7.08-22.7,0-22.7-.08,10.16-.07,22.7-.07S195.41,231.78,195.41,231.82Z" style="fill:#e0e0e0"></path><path d="M195.41,227.9s-10.17.08-22.7.08-22.7,0-22.7-.08,10.16-.07,22.7-.07S195.41,227.87,195.41,227.9Z" style="fill:#e0e0e0"></path><path d="M195.41,224s-10.17.07-22.7.07S150,224,150,224s10.16-.08,22.7-.08S195.41,224,195.41,224Z" style="fill:#e0e0e0"></path><path d="M195.41,220.07s-10.17.07-22.7.07-22.7,0-22.7-.07,10.16-.07,22.7-.07S195.41,220,195.41,220.07Z" style="fill:#e0e0e0"></path><rect x="153.85" y="230.05" width="3.78" height="7.59" style="fill:#840000"></rect><rect x="167.41" y="230.05" width="3.78" height="7.59" style="fill:#455a64"></rect><rect x="187.97" y="232.64" width="3.78" height="5.01" style="fill:#455a64"></rect><rect x="180.96" y="226.45" width="3.78" height="11.19" style="fill:#e0e0e0"></rect><rect x="174.03" y="222.09" width="3.78" height="15.55" style="fill:#840000"></rect><rect x="160.36" y="226.45" width="3.78" height="11.19" style="fill:#e0e0e0"></rect><path d="M194.86,237.64h-2.57l-7,0-23.13,0H149.88v-.07c0-6,0-11.14,0-14.77,0-1.81,0-3.24,0-4.23,0-.49,0-.87,0-1.13v-.29a.31.31,0,0,1,0-.09v.38c0,.26,0,.64,0,1.13,0,1,0,2.42,0,4.23,0,3.63,0,8.76,0,14.77l-.06-.06h12.2l23.13,0,7,0,1.91,0h.66Z" style="fill:#263238"></path></g><g id="freepik--chart-1--inject-134"><path d="M236.6,386.05a2.44,2.44,0,1,1-1.78,3A2.45,2.45,0,0,1,236.6,386.05Z" style="fill:#263238"></path><path d="M236.78,388.14a7.79,7.79,0,0,1-1.26-.64l-3.36-1.92c-2.84-1.65-6.77-4-11.17-6.62l.13,0H219c-5.62,0-10.71,0-14.39-.07l-4.36-.09a8.9,8.9,0,0,1-1.6-.1,10.27,10.27,0,0,1,1.6-.1l4.36-.08c3.68-.05,8.77-.08,14.39-.08h2.15l.06,0c4.4,2.65,8.3,5,11.09,6.76l3.28,2.06A8.2,8.2,0,0,1,236.78,388.14Z" style="fill:#263238"></path><rect x="131.64" y="350.97" width="71.53" height="43.4" rx="4.48" style="fill:#fff"></rect><path d="M198.69,394.37a5.28,5.28,0,0,0,2.14-.61,4.41,4.41,0,0,0,1.81-1.94,4.51,4.51,0,0,0,.43-1.65c0-.61,0-1.28,0-2,0-5.64,0-13.77-.09-23.8,0-2.52,0-5.15,0-7.89a9,9,0,0,0-.12-2,4.31,4.31,0,0,0-4.63-3.3l-18.86,0-43.23,0a4.24,4.24,0,0,0-4,3,10.22,10.22,0,0,0-.19,2.74V370.8c0,3.61,0,7.17,0,10.65v7.69c0,.43,0,.85,0,1.23a4.35,4.35,0,0,0,.3,1.14,4.27,4.27,0,0,0,3.58,2.61c1.58,0,3.21,0,4.77,0h9.16l16.44,0,23.8.09,6.47,0,1.69,0,.57,0s-.19,0-.57,0l-1.69,0-6.47.05-23.8.08-16.44,0-9.16,0c-1.58,0-3.15,0-4.81,0a4.74,4.74,0,0,1-4-2.88,5,5,0,0,1-.32-1.27,11.33,11.33,0,0,1,0-1.29v-2.53c0-1.7,0-3.43,0-5.16V370.8q0-5.43,0-11v-4.23a5.33,5.33,0,0,1,.21-1.47,4.77,4.77,0,0,1,4.54-3.36l43.23,0,18.86,0a5.57,5.57,0,0,1,2.24.35,5,5,0,0,1,1.81,1.32,4.77,4.77,0,0,1,1,2,9.06,9.06,0,0,1,.12,2.12c0,2.74,0,5.37,0,7.89,0,10-.06,18.16-.08,23.8,0,.71,0,1.36,0,2a4.53,4.53,0,0,1-2.36,3.67,4.37,4.37,0,0,1-1.61.49A3.17,3.17,0,0,1,198.69,394.37Z" style="fill:#263238"></path><path d="M154.7,368.81l5.52-5.68a12.9,12.9,0,0,0-8.14-3.42v7.94A5,5,0,0,1,154.7,368.81Z" style="fill:#840000"></path><path d="M148.47,376.81c-2.71,2.78-4.46,4.54-5.59,5.64a13,13,0,0,0,8.09,3.19v-7.93A5.07,5.07,0,0,1,148.47,376.81Z" style="fill:#e0e0e0"></path><path d="M146.41,373.54h-7.95a12.93,12.93,0,0,0,3.62,8.15c1.29-1.29,3.26-3.29,5.56-5.64A5.08,5.08,0,0,1,146.41,373.54Z" style="fill:#e0e0e0"></path><path d="M147.37,369.61l-5.69-5.53a13,13,0,0,0-3.25,8.34h7.92A5.06,5.06,0,0,1,147.37,369.61Z" style="fill:#e0e0e0"></path><path d="M151,367.62V359.7a12.93,12.93,0,0,0-8.52,3.58l5.69,5.53A5,5,0,0,1,151,367.62Z" style="fill:#840000"></path><path d="M152.08,377.69v7.94a13,13,0,0,0,8.15-3.43l-5.66-5.56A5.1,5.1,0,0,1,152.08,377.69Z" style="fill:#840000"></path><path d="M155.37,375.84c2.67,2.62,4.46,4.38,5.64,5.57a12.94,12.94,0,0,0,3.35-7.87h-7.94A5.16,5.16,0,0,1,155.37,375.84Z" style="fill:#840000"></path><path d="M155.47,369.62a5.06,5.06,0,0,1,1,2.8h7.92a12.91,12.91,0,0,0-3.4-8.5Z" style="fill:#840000"></path><path d="M185.88,368.62l5.52-5.68a13,13,0,0,0-8.14-3.42v7.94A5,5,0,0,1,185.88,368.62Z" style="fill:#840000"></path><path d="M179.65,376.62c-2.71,2.78-4.46,4.54-5.59,5.64a12.87,12.87,0,0,0,8.09,3.19v-7.93A5.07,5.07,0,0,1,179.65,376.62Z" style="fill:#e0e0e0"></path><path d="M177.59,373.35h-8a13,13,0,0,0,3.62,8.16c1.29-1.3,3.26-3.3,5.56-5.65A5,5,0,0,1,177.59,373.35Z" style="fill:#e0e0e0"></path><path d="M178.55,369.43l-5.69-5.53a12.92,12.92,0,0,0-3.25,8.34h7.92A5,5,0,0,1,178.55,369.43Z" style="fill:#840000"></path><path d="M182.15,367.44v-7.93a13,13,0,0,0-8.53,3.58l5.7,5.53A4.94,4.94,0,0,1,182.15,367.44Z" style="fill:#840000"></path><path d="M183.26,377.5v7.94a13,13,0,0,0,8.15-3.43l-5.66-5.56A5,5,0,0,1,183.26,377.5Z" style="fill:#e0e0e0"></path><path d="M186.54,375.65c2.68,2.62,4.47,4.38,5.65,5.57a12.94,12.94,0,0,0,3.35-7.87H187.6A5.07,5.07,0,0,1,186.54,375.65Z" style="fill:#e0e0e0"></path><path d="M186.65,369.43a5.07,5.07,0,0,1,1,2.81h7.92a12.94,12.94,0,0,0-3.4-8.51Z" style="fill:#840000"></path></g><g id="freepik--Character--inject-134"><path d="M125.16,175a12.26,12.26,0,0,0-2.41-4.34,5.75,5.75,0,0,0-4.41-2,3.83,3.83,0,0,0-3.56,3l-1.24.31c2.23,1.58,3.37,4.28,4.13,6.91s.54,5,2,7.36c1.44-1.57,3.14-3.24,3.46-5.35a6,6,0,0,1,.21,4.22,6,6,0,0,0,2.71-4.63A12.48,12.48,0,0,0,125.16,175Z" style="fill:#263238"></path><path d="M116.54,169.77c-.62-5.76-7.77-7.28-12.4-7.63a18.41,18.41,0,0,0-12.79,4.46,37.64,37.64,0,0,0-8.47,10.7l3.3.8a2.15,2.15,0,0,0-2.36,1.24,5.85,5.85,0,0,0-.4,2.79,44,44,0,0,0,.65,6.79c1.11,5.86,4,11.23,6.88,16.49,1.33-4.32,1-9,.47-13.46a8.32,8.32,0,0,1,.37-4.73,6.28,6.28,0,0,1,3.33-2.71c1.35-.57,2.8-.9,4.15-1.48a12.15,12.15,0,0,0,6.58-6.86Z" style="fill:#263238"></path><path d="M90.28,182.8l-1.57,33.82c-.27,5.75.51,14.25,9.63,14.26h0c7.9-.59,10.24-8,10.49-13.34.11-2.55.22-4.67.24-4.93,0,0,8.65-.41,9.67-8.9.49-4.11.81-12.64,1-20.37a15.94,15.94,0,0,0-14.23-16.25l-.82-.09C95.8,166.57,90.46,173.89,90.28,182.8Z" style="fill:#ffbf9d"></path><path d="M109.07,212.61a20.67,20.67,0,0,1-10.72-4.46s2,6.5,10.61,6.64Z" style="fill:#ff9a6c"></path><path d="M108.32,196.39a8.39,8.39,0,0,1,2.16-.16c.34,0,.66,0,.74-.25a1.77,1.77,0,0,0-.12-1c-.22-.84-.46-1.72-.71-2.64a43,43,0,0,1-1.5-6.89,45,45,0,0,1,2,6.75c.23.93.46,1.81.67,2.66a1.89,1.89,0,0,1,0,1.33.84.84,0,0,1-.6.43,2.21,2.21,0,0,1-.57,0A9,9,0,0,1,108.32,196.39Z" style="fill:#263238"></path><path d="M90.3,189.17c-.14-.08-5.66-2.35-6.1,3.48s5.51,5.07,5.53,4.9S90.3,189.17,90.3,189.17Z" style="fill:#ffbf9d"></path><path d="M88.12,195.21s-.11.06-.29.13a1.07,1.07,0,0,1-.76,0,2.52,2.52,0,0,1-1-2.35,3.3,3.3,0,0,1,.39-1.43,1.18,1.18,0,0,1,.82-.72.51.51,0,0,1,.58.32c.07.17,0,.28,0,.3s.14-.09.11-.34a.74.74,0,0,0-.2-.38.81.81,0,0,0-.56-.19,1.42,1.42,0,0,0-1.12.83,3.41,3.41,0,0,0-.48,1.59A2.67,2.67,0,0,0,87,195.57a1.12,1.12,0,0,0,.94-.09C88.1,195.35,88.14,195.22,88.12,195.21Z" style="fill:#ff9a6c"></path><path d="M116.41,172.77c1.33-3.44-1.4-5.4-4.22-7.77a9.16,9.16,0,0,0-10.34-.83,38.11,38.11,0,0,0-4.43,3.72c-1.49,1.23-3.37,2.23-5.28,1.92a6.91,6.91,0,0,0,7.59,2.08,17.45,17.45,0,0,1-8.87,4.56,6.28,6.28,0,0,0,8-.31,17.53,17.53,0,0,1-5,6.88c-.37.31-.79.71-.7,1.19s.66.7,1.15.78a8.11,8.11,0,0,0,7.6-3.08c1.86-2.48,3.19-5.18,4.91-7.75.82-1.22,3.23-3.25,5-3.12,1.45.11,4.14.9,4.67,2.26" style="fill:#263238"></path><path d="M103.63,168.21a1.7,1.7,0,0,0-1.17-.81c-3.14-.9-6.58.69-8.71,3.16s-3.18,5.69-4,8.86a17.08,17.08,0,0,0-.56,7.86l1.33,2.24a5.69,5.69,0,0,1,.43,2.26c.1.77.59,1.64,1.37,1.62a1.57,1.57,0,0,0,1.23-1.06c.68-1.59.2-3.5.94-5.06a12.35,12.35,0,0,1,2.24-2.62,17,17,0,0,0,2.91-5.35l3.8-9.6A1.94,1.94,0,0,0,103.63,168.21Z" style="fill:#263238"></path><path d="M116.41,172.77c1.33-3.44-1.4-5.4-4.22-7.77a9.16,9.16,0,0,0-10.34-.83,38.11,38.11,0,0,0-4.43,3.72c-1.49,1.23-3.37,2.23-5.28,1.92a6.91,6.91,0,0,0,7.59,2.08,17.45,17.45,0,0,1-8.87,4.56,6.28,6.28,0,0,0,8-.31,17.53,17.53,0,0,1-5,6.88c-.37.31-.79.71-.7,1.19s.66.7,1.15.78a8.11,8.11,0,0,0,7.6-3.08c1.86-2.48,3.19-5.18,4.91-7.75.82-1.22,3.23-3.25,5-3.12,1.45.11,4.14.9,4.67,2.26" style="fill:#263238"></path><path d="M98.19,169.93s.3-.06.81-.21a7.49,7.49,0,0,0,2-1c.79-.53,1.64-1.3,2.66-2.08a10.13,10.13,0,0,1,1.73-1.07,5.85,5.85,0,0,1,2.14-.52,7.21,7.21,0,0,1,4,1.16,10.38,10.38,0,0,1,2.52,2.3,16.33,16.33,0,0,1,1.31,1.89,3.24,3.24,0,0,1,.39.74c-.06,0-.66-1-1.9-2.46a10.54,10.54,0,0,0-2.5-2.18,7,7,0,0,0-3.84-1.08,6.63,6.63,0,0,0-3.68,1.49c-1,.75-1.89,1.51-2.72,2a6.46,6.46,0,0,1-2.11.93A2.15,2.15,0,0,1,98.19,169.93Z" style="fill:#455a64"></path><path d="M102,175.39s.65-.68,1.56-1.88c.47-.6,1-1.33,1.68-2.08a8,8,0,0,1,2.62-2,6.62,6.62,0,0,1,3.27-.55,6.18,6.18,0,0,1,2.57.82,6.31,6.31,0,0,1,1.43,1.13,1.86,1.86,0,0,1,.39.54,10,10,0,0,0-1.94-1.44,6.38,6.38,0,0,0-5.57-.17,7.94,7.94,0,0,0-2.52,1.92c-.68.72-1.23,1.44-1.73,2a16.13,16.13,0,0,1-1.23,1.32C102.2,175.27,102,175.41,102,175.39Z" style="fill:#455a64"></path><path d="M121.83,176.92a8.1,8.1,0,0,1-.46-1.29,8.26,8.26,0,0,0-1.63-2.79,5.41,5.41,0,0,0-2.74-1.61c-.81-.19-1.34-.11-1.34-.18a2.46,2.46,0,0,1,1.39-.08,5.22,5.22,0,0,1,3,1.62,7.25,7.25,0,0,1,1.6,3A3.76,3.76,0,0,1,121.83,176.92Z" style="fill:#455a64"></path><path d="M96.89,184.37l-.25,0a6.1,6.1,0,0,1-.75,0,7.1,7.1,0,0,1-2.73-.7,3.62,3.62,0,0,1-1.61-1.25,1.17,1.17,0,0,1,0-1.21,1.72,1.72,0,0,1,1.09-.68c.42-.12.87-.16,1.3-.26a7.53,7.53,0,0,0,1.31-.4,8.15,8.15,0,0,0,2.48-1.6l.16.25a4.75,4.75,0,0,1-5.37-1.37l-.15-.19.23-.08a10.58,10.58,0,0,0,4.23-2.85l.18.29a6.5,6.5,0,0,1-6.27-1.79l-.18-.19-.21-.23.3-.07a6.14,6.14,0,0,0,2.66-1.56,21.12,21.12,0,0,0,2-2.33,17.39,17.39,0,0,1,2-2.24,12.53,12.53,0,0,1,17.74,1,8.55,8.55,0,0,1,1.42,2,17.46,17.46,0,0,0-1.53-1.91,12.92,12.92,0,0,0-5.58-3.45,12,12,0,0,0-4.52-.47,12.6,12.6,0,0,0-5,1.51,13.22,13.22,0,0,0-4.3,3.83,20.53,20.53,0,0,1-2,2.38,6.37,6.37,0,0,1-2.81,1.64l.1-.29.17.18A6.12,6.12,0,0,0,96.88,174l.59-.15-.41.45a10.92,10.92,0,0,1-4.39,2.93l.08-.27a4.42,4.42,0,0,0,5,1.31l.78-.33-.62.58a8.19,8.19,0,0,1-2.58,1.63,7.82,7.82,0,0,1-1.36.41c-.45.09-.89.13-1.29.23a1.56,1.56,0,0,0-1,.57.93.93,0,0,0,0,1,3.57,3.57,0,0,0,1.51,1.21,7.33,7.33,0,0,0,2.66.76C96.54,184.38,96.89,184.35,96.89,184.37Z" style="fill:#455a64"></path><path d="M116.32,190.5a1.22,1.22,0,0,1-1.23,1.18,1.17,1.17,0,0,1-1.21-1.15,1.23,1.23,0,0,1,1.23-1.19A1.17,1.17,0,0,1,116.32,190.5Z" style="fill:#263238"></path><path d="M117.5,186.22c-.16.16-1.06-.56-2.37-.62s-2.3.57-2.43.4.09-.35.53-.64a3.36,3.36,0,0,1,2-.52,3.19,3.19,0,0,1,1.87.7C117.45,185.86,117.58,186.16,117.5,186.22Z" style="fill:#263238"></path><path d="M105,190.5a1.22,1.22,0,0,1-1.23,1.18,1.17,1.17,0,0,1-1.21-1.15,1.23,1.23,0,0,1,1.23-1.19A1.17,1.17,0,0,1,105,190.5Z" style="fill:#263238"></path><path d="M104.62,186c-.16.15-1.05-.57-2.36-.62s-2.3.56-2.44.4.1-.36.53-.65a3.39,3.39,0,0,1,2-.51,3.23,3.23,0,0,1,1.87.69C104.57,185.64,104.7,185.93,104.62,186Z" style="fill:#263238"></path><path d="M105.22,181.91c-.2.33-1.45-.08-3-.17s-2.85.08-3-.27c-.06-.16.22-.46.77-.7a5,5,0,0,1,2.32-.36,4.86,4.86,0,0,1,2.25.69C105.07,181.43,105.3,181.75,105.22,181.91Z" style="fill:#263238"></path><path d="M117.72,182.37c-.28.29-1.34-.05-2.63-.1s-2.38.14-2.62-.18c-.11-.15.07-.45.56-.72a4.25,4.25,0,0,1,2.14-.43,4,4,0,0,1,2.08.66C117.7,181.92,117.84,182.23,117.72,182.37Z" style="fill:#263238"></path><path d="M104.79,197.09c.2,0,.21,1.33,1.36,2.27s2.59.8,2.6,1-.32.26-.92.28a3.38,3.38,0,0,1-2.17-.75,2.88,2.88,0,0,1-1-1.91C104.55,197.41,104.7,197.08,104.79,197.09Z" style="fill:#263238"></path><path d="M109.51,443.94l-.64,16.81s16.88,6.3,17.06,9.41l-32.64-.06-.08-26.24Z" style="fill:#263238"></path><path d="M98.78,459.32a1.32,1.32,0,0,0-.92,1.51,1.28,1.28,0,0,0,1.5.93,1.41,1.41,0,0,0,1-1.61,1.33,1.33,0,0,0-1.67-.79" style="fill:#e0e0e0"></path><path d="M93.29,470.1l.1-2.65,31.26,1.06s1.45.63,1.28,1.65Z" style="fill:#455a64"></path><path d="M109.4,460.59c0,.16-.8.23-1.59.74s-1.2,1.18-1.35,1.11.1-1,1.06-1.58S109.44,460.44,109.4,460.59Z" style="fill:#fff"></path><path d="M112.82,462c0,.15-.65.42-1.19,1.1s-.7,1.38-.86,1.37-.26-.9.43-1.73S112.82,461.86,112.82,462Z" style="fill:#fff"></path><path d="M114.76,466.11c-.15,0-.37-.76,0-1.63s1.15-1.22,1.22-1.09-.4.6-.72,1.32S114.92,466.1,114.76,466.11Z" style="fill:#fff"></path><path d="M109.12,456.74c-.06.14-.79-.08-1.7,0s-1.6.34-1.68.21.59-.71,1.65-.76S109.2,456.61,109.12,456.74Z" style="fill:#fff"></path><path d="M69.55,441.65l-1.76,20.28L71,478.37a2.07,2.07,0,0,1-1.78,2.47h0a2,2,0,0,1-1.79-.65C64.53,477,53.88,465.3,54.1,463.82c.24-1.71.44-21.51.44-21.51Z" style="fill:#263238"></path><path d="M69.23,480.84,54.18,462.45l0,.86a3.11,3.11,0,0,0,.61,2.08c1.19,1.6,4.58,5.94,12.63,14.79a2.07,2.07,0,0,0,1.86.66Z" style="fill:#455a64"></path><g style="opacity:0.6000000000000001"><path d="M58.77,456.16a1.26,1.26,0,0,1,.24,1.67,1.21,1.21,0,0,1-1.65.25,1.34,1.34,0,0,1-.24-1.77,1.26,1.26,0,0,1,1.74-.07" style="fill:#fff"></path></g><path d="M65.16,471.67A6.23,6.23,0,0,1,67,470.2a6.22,6.22,0,0,1,2.37-.29c0-.05-.23-.23-.7-.32a3.25,3.25,0,0,0-1.84.2A3.21,3.21,0,0,0,65.42,471C65.16,471.35,65.11,471.65,65.16,471.67Z" style="fill:#fff"></path><path d="M66.43,474.48a19.57,19.57,0,0,1,1.85-.76,16.72,16.72,0,0,1,2-.12,2.28,2.28,0,0,0-2.1-.31C67,473.56,66.33,474.42,66.43,474.48Z" style="fill:#fff"></path><path d="M62.69,468a20.85,20.85,0,0,1,2.78-1.36,19.32,19.32,0,0,1,3.06-.51A5.67,5.67,0,0,0,62.69,468Z" style="fill:#fff"></path><path d="M62.71,461.8c0,.13,1.2-.27,2.66-.23s2.6.47,2.65.34a4.11,4.11,0,0,0-2.64-.79A4,4,0,0,0,62.71,461.8Z" style="fill:#fff"></path><path d="M63.08,455.84a9.84,9.84,0,0,1,2.76-.32,10.53,10.53,0,0,1,2.65.85s-.17-.31-.62-.61a4.57,4.57,0,0,0-4.07-.4C63.3,455.57,63.05,455.79,63.08,455.84Z" style="fill:#fff"></path><path d="M65.88,454.38a1.79,1.79,0,0,0,.08-.76,5.32,5.32,0,0,0-.49-2.05,2.34,2.34,0,0,0-.94-1.2.83.83,0,0,0-1,.13,1.29,1.29,0,0,0-.38.89,2.94,2.94,0,0,0,2.4,2.89,3.42,3.42,0,0,0,3.47-1.57,1.23,1.23,0,0,0,.12-1,.83.83,0,0,0-.84-.49,2.88,2.88,0,0,0-1.38.61,6.08,6.08,0,0,0-1.49,1.49c-.28.41-.38.67-.35.68a9.25,9.25,0,0,1,2-1.91,2.73,2.73,0,0,1,1.22-.5.43.43,0,0,1,.45.26.78.78,0,0,1-.12.64,3.05,3.05,0,0,1-3,1.33,2.55,2.55,0,0,1-2.07-2.42,1,1,0,0,1,.24-.64.45.45,0,0,1,.52-.07,2.11,2.11,0,0,1,.82,1A7.92,7.92,0,0,1,65.88,454.38Z" style="fill:#fff"></path><path d="M125.24,302.22s.18,6.6-.72,18.28C124.18,325,111.22,453,111.22,453H90.64l5.79-117.45-1.69.36S84.93,386,84,394.06c-.82,7.29-11.72,60.27-11.72,60.27l-18.82.21,6-70.05,7-67.22,2.63-19.57Z" style="fill:#263238"></path><polygon points="130.27 267.97 155.78 272.7 156.82 274.22 155.29 283.34 125.43 281.96 130.27 267.97" style="fill:#ffbf9d"></polygon><path d="M154.17,285.06c2.09.69,4.4,1.54,4.4,1.54l2.09.65a2.35,2.35,0,0,1-.3.33,1.59,1.59,0,0,0-.49.66,1.31,1.31,0,0,0,.67,1.32,3.23,3.23,0,0,0,3.15.26,3.14,3.14,0,0,0,1.72-2.49,2.23,2.23,0,0,0,.54-.72c.9-1.85-.61-4.43-.61-4.43l.77.13s2,1.27,1.59,5.23a2.47,2.47,0,0,0,.42,1.69,1.24,1.24,0,0,0,.89.57c1,.08,1.27-.58,1.57-3s-.23-4.95-1.44-6.11a15.7,15.7,0,0,0-1.75-1.52s6.94.73,7.38.76c1.28.08,2.38-.42,2.51-1.26.09-.55-.2-1.29-1.69-1.44-1.28-.12-14.37-3.33-14.37-3.33l-4.5-1a6.68,6.68,0,0,0-2.23-.13l-4.18-.23L149,280.7l1.47,1.46A6.81,6.81,0,0,0,154.17,285.06Z" style="fill:#ffbf9d"></path><polygon points="156.01 289.47 156.28 291.22 157.76 290.18 168.12 264.52 166.37 263.82 156.01 289.47" style="fill:#263238"></polygon><path d="M165.32,282.09a3.09,3.09,0,0,1,1.29.58,2.43,2.43,0,0,1,.77,1.3,5.87,5.87,0,0,1,.1,1.9,10,10,0,0,0,0,2,3.16,3.16,0,0,0,.6,1.53,1.21,1.21,0,0,0,1,.49c.27,0,.4-.08.39-.09s-.14,0-.39,0a1.14,1.14,0,0,1-.84-.5,3.18,3.18,0,0,1-.5-1.44,10.4,10.4,0,0,1,0-1.92,5.9,5.9,0,0,0-.13-2,2.52,2.52,0,0,0-.9-1.38,2.27,2.27,0,0,0-1-.44C165.46,282.05,165.32,282.07,165.32,282.09Z" style="fill:#ff9a6c"></path><path d="M175.27,279.91a8.2,8.2,0,0,0-1.38-.15l-3.33-.29-3.33-.34a9.55,9.55,0,0,0-1.38-.11,6,6,0,0,0,1.36.3c.85.15,2,.3,3.32.42s2.49.19,3.35.21A6.12,6.12,0,0,0,175.27,279.91Z" style="fill:#ff9a6c"></path><path d="M163.61,283.5a1.83,1.83,0,0,0,.12.42,1.26,1.26,0,0,1,0,1.07.69.69,0,0,1-.61.3,3.38,3.38,0,0,1-.89-.15,1.59,1.59,0,0,0-1.11.06,1.31,1.31,0,0,0-.64,1,1.49,1.49,0,0,0,.37,1.13,1.92,1.92,0,0,0,.92.61,6.07,6.07,0,0,0,1.78.15,4,4,0,0,0,1.18-.24c.26-.12.37-.24.36-.25a3.93,3.93,0,0,0-.4.14,3.67,3.67,0,0,1-1.15.15,6.75,6.75,0,0,1-1.7-.19,1.52,1.52,0,0,1-1.09-1.47,1.08,1.08,0,0,1,.5-.79,1.32,1.32,0,0,1,.92-.05,4,4,0,0,0,1,.13.84.84,0,0,0,.76-.43,1.35,1.35,0,0,0,0-1.21C163.71,283.62,163.63,283.49,163.61,283.5Z" style="fill:#ff9a6c"></path><path d="M156.82,282a1.15,1.15,0,0,0,.05-.66,2.6,2.6,0,0,0-.75-1.53L156,280A7.66,7.66,0,0,0,157,280a5.9,5.9,0,0,0,3-1.15,15,15,0,0,1-3.06.87,7.65,7.65,0,0,1-.91.08h-.32l.23.21a2.76,2.76,0,0,1,.76,1.37A5,5,0,0,0,156.82,282Z" style="fill:#ff9a6c"></path><path d="M168.63,283.29c0-.06-.55.15-.87.74a1.24,1.24,0,0,0-.15,1.13c.08,0,.11-.49.4-1S168.67,283.36,168.63,283.29Z" style="fill:#ff9a6c"></path><path d="M113.4,219.3c6.11,1.41,14.39,6.51,17.33,12,2.24,4.19,2.75,16.3,2.42,34.53,0,1.71,3.32.34,2.74,4l-11.34,14.25-9-15.58-38.65-8.62-6.61-36.35S109.66,218.44,113.4,219.3Z" style="fill:#e0e0e0"></path><path d="M155.86,274.35a1.85,1.85,0,0,0,.81,2c.61.45,1.36.69,2,1.1,1.91,1.23,2.65,3.82,4.62,4.95.27.16.66.27.87,0s.09-.56,0-.83c-1-2.29-2-4.59-3-6.89" style="fill:#ffbf9d"></path><path d="M160.89,274.71s.17.24.41.71.56,1.15.95,2l1.37,3,.4.87a1.5,1.5,0,0,1,.21,1.1.64.64,0,0,1-.6.38,1.45,1.45,0,0,1-.6-.17,4.77,4.77,0,0,1-.89-.66,28.37,28.37,0,0,1-2.52-3.18,5.62,5.62,0,0,0-1.23-1.17c-.45-.29-.92-.49-1.34-.73a2.68,2.68,0,0,1-1.49-1.67c-.11-.56.09-.84.1-.82a2.56,2.56,0,0,0,.06.78,2.6,2.6,0,0,0,1.47,1.45,14.83,14.83,0,0,1,1.39.69,5.69,5.69,0,0,1,1.34,1.22,36.33,36.33,0,0,0,2.5,3.12,5.64,5.64,0,0,0,.81.6c.27.15.56.16.61,0s-.07-.49-.2-.78-.25-.59-.38-.88l-1.28-3c-.36-.86-.65-1.57-.84-2.06A4,4,0,0,1,160.89,274.71Z" style="fill:#ff9a6c"></path><path d="M127.77,271.68a14.73,14.73,0,0,0,1.5-1.82,15,15,0,0,0,1.48-1.82,7.54,7.54,0,0,0-3,3.64Z" style="fill:#263238"></path><path d="M70.26,223.54l15.49-7.47,3.11-6.14,17.93,8.48,2-3,3.58,3.6,4.1,1.34L126,237.15l0,35.92,2.42,27c.83,3.87-1.82,7.12-3.43,8.9h0l-13.53-.42-9.21-.73-33.93-4.08h0a9.75,9.75,0,0,1-1.87-7.4L71,267.33Z" style="fill:#e0e0e0"></path><path d="M107.8,312a1.1,1.1,0,0,1,0-.24c0-.19,0-.43,0-.71,0-.67,0-1.58,0-2.73,0-2.41-.08-5.82-.14-10-.14-8.5-.32-20.17-.52-33.06s-.35-24.62-.37-33.08c0-4.23,0-7.66,0-10,0-1.15,0-2.06,0-2.73,0-.29,0-.52,0-.71a1.1,1.1,0,0,1,0-.24.75.75,0,0,1,0,.24c0,.19,0,.42,0,.71,0,.67,0,1.58.05,2.72,0,2.42.08,5.83.14,10,.13,8.5.32,20.17.52,33.07s.35,24.6.37,33.07c0,4.23,0,7.66,0,10,0,1.15,0,2.06-.05,2.73,0,.28,0,.52,0,.71A.75.75,0,0,1,107.8,312Z" style="fill:#263238"></path><path d="M51.06,270.82c1-4.46,7.86-31.61,8.55-34.81,1.84-8.58,10.65-12.47,10.65-12.47l6.54,22.74-6.44,28.26,1.89.52-4.93,19.41a74.89,74.89,0,0,1-9.44-3.56C53.24,288.67,48.05,284.83,51.06,270.82Z" style="fill:#e0e0e0"></path><path d="M62.43,292.81a7.5,7.5,0,0,1,1.46.41l3.9,1.3-.25.14c.59-2.68,1.41-6.22,2.32-10.07.79-3.24,1.52-6.23,2.13-8.77v.07a1.34,1.34,0,0,0-.72-1,2.24,2.24,0,0,0-1.19-.3,3.1,3.1,0,0,0-1.85.88c-.87.81-1.26,1.4-1.31,1.36s.06-.17.25-.44a7.33,7.33,0,0,1,.89-1.1,3.25,3.25,0,0,1,2-1,2.51,2.51,0,0,1,1.41.3,1.74,1.74,0,0,1,.94,1.33v.07l-2,8.79c-.92,3.85-1.78,7.38-2.45,10l-.06.22-.2-.08-3.84-1.46A6.86,6.86,0,0,1,62.43,292.81Z" style="fill:#263238"></path><path d="M77.5,246.55c.14,0-1.19,6.33-3,14.05s-3.34,14-3.48,13.93,1.19-6.32,3-14S77.36,246.52,77.5,246.55Z" style="fill:#263238"></path><path d="M68.16,225.37a7.31,7.31,0,0,1,2.45,1,14.06,14.06,0,0,1,6.89,10.35,7,7,0,0,1,0,2.65c-.09,0-.06-1-.35-2.59a15.13,15.13,0,0,0-6.73-10.09C69.07,225.82,68.13,225.45,68.16,225.37Z" style="fill:#263238"></path><path d="M85.75,216.07s.14,0,.39.12.63.25,1.1.47c1,.42,2.29,1.09,3.92,2,3.28,1.72,7.6,4.49,12.7,6.85h0l-.35.13c1-2.4,2-4.69,3-6.8l.2-.47.23.45c1.13,2.2,2.15,4.2,3,5.9h-.33c.94-1.71,1.59-3.17,2-4.17s.63-1.58.67-1.57a6.45,6.45,0,0,1-.48,1.65,39.18,39.18,0,0,1-1.9,4.27l-.17.32-.17-.32c-.9-1.69-2-3.67-3.12-5.85h.44c-.91,2.11-1.91,4.41-2.94,6.82l-.11.24-.24-.11h0c-5.15-2.39-9.43-5.2-12.66-7-1.6-.91-2.91-1.63-3.83-2.11A12.1,12.1,0,0,1,85.75,216.07Z" style="fill:#263238"></path><path d="M126.88,236.94c.14,0-.16,8.66-.68,19.33s-1,19.31-1.19,19.3.16-8.66.67-19.33S126.73,236.94,126.88,236.94Z" style="fill:#263238"></path><polygon points="105.7 226.87 99.71 285.29 107.8 300.81 116.54 286.77 108.74 226.49 105.7 226.87" style="fill:#840000"></polygon><polygon points="104.72 224.22 105.7 226.87 108.74 226.49 109.04 223.83 107.3 220.53 106.15 220.89 104.72 224.22" style="fill:#840000"></polygon><path d="M148.93,262.41l-12.66,32.18a1.85,1.85,0,0,1-1.67,1l-35.07-.77a1.75,1.75,0,0,1-1.74-2L109,261a1.85,1.85,0,0,1,1.85-1.52l36.51.38A1.74,1.74,0,0,1,148.93,262.41Z" style="fill:#263238"></path><path d="M92.65,283.34s3.49-3,4.36-3.78,3.83-3.37,5.36-3.4l1.53,0-.74,4.05s11.74-3.72,13.69-2.11-1.44,2.53-3.19,3.05-7.37,2.4-7.37,2.4,14.76-4.07,16.06-2.65-1.15,2.19-1.15,2.19l-9.33,5.47-1.07.62-.91,1.63s-3.64,3.42-5,3.27-11.59-.36-11.59-.36Z" style="fill:#ffbf9d"></path><path d="M104.9,288.22a11.86,11.86,0,0,1,2.22-1.07c1.4-.59,3.37-1.34,5.59-2s4.28-1.17,5.77-1.47a13.43,13.43,0,0,1,2.44-.36,17.17,17.17,0,0,1-2.37.65c-1.48.37-3.5.9-5.71,1.58s-4.19,1.38-5.61,1.9A16.43,16.43,0,0,1,104.9,288.22Z" style="fill:#ff9a6c"></path><path d="M106.71,290.8a6.31,6.31,0,0,1,2-1.12,6.51,6.51,0,0,1,2.2-.72,6.4,6.4,0,0,1-2,1.11A6.67,6.67,0,0,1,106.71,290.8Z" style="fill:#ff9a6c"></path><polygon points="95.2 283.29 72.49 275.84 69.03 291.16 95.61 293.74 95.2 283.29" style="fill:#ffbf9d"></polygon></g></svg>